<?xml version="1.0" encoding="UTF-8" standalone="no"?>
<!-- Created with Inkscape (http://www.inkscape.org/) -->

<svg
   width="512"
   height="512"
   viewBox="0 0 512 512"
   version="1.1"
   id="svg1"
   inkscape:version="1.3 (0e150ed6c4, 2023-07-21)"
   sodipodi:docname="favicon.svg"
   inkscape:export-filename="pwa\icon-32.png"
   inkscape:export-xdpi="6"
   inkscape:export-ydpi="6"
   xml:space="preserve"
   xmlns:inkscape="http://www.inkscape.org/namespaces/inkscape"
   xmlns:sodipodi="http://sodipodi.sourceforge.net/DTD/sodipodi-0.dtd"
   xmlns:xlink="http://www.w3.org/1999/xlink"
   xmlns="http://www.w3.org/2000/svg"
   xmlns:svg="http://www.w3.org/2000/svg"><sodipodi:namedview
     id="namedview1"
     pagecolor="#505050"
     bordercolor="#ffffff"
     borderopacity="1"
     inkscape:showpageshadow="0"
     inkscape:pageopacity="0"
     inkscape:pagecheckerboard="1"
     inkscape:deskcolor="#505050"
     inkscape:document-units="px"
     inkscape:zoom="0.27517778"
     inkscape:cx="1397.2785"
     inkscape:cy="846.72533"
     inkscape:window-width="1920"
     inkscape:window-height="991"
     inkscape:window-x="-9"
     inkscape:window-y="-9"
     inkscape:window-maximized="1"
     inkscape:current-layer="layer1" /><defs
     id="defs1"><linearGradient
       id="linearGradient25"
       inkscape:collect="always"><stop
         style="stop-color:#00ffff;stop-opacity:1;"
         offset="0"
         id="stop25" /><stop
         style="stop-color:#0099ff;stop-opacity:1;"
         offset="0.5"
         id="stop27" /><stop
         style="stop-color:#ff00ff;stop-opacity:1"
         offset="1"
         id="stop26" /></linearGradient><linearGradient
       inkscape:collect="always"
       xlink:href="#linearGradient25"
       id="linearGradient26"
       x1="168.3457"
       y1="277.23438"
       x2="362.64062"
       y2="471.52908"
       gradientUnits="userSpaceOnUse"
       gradientTransform="matrix(2.3246311,0,0,2.3246311,-357.02611,-610.14982)" /><linearGradient
       inkscape:collect="always"
       xlink:href="#linearGradient25"
       id="linearGradient11"
       gradientUnits="userSpaceOnUse"
       gradientTransform="matrix(2.3246311,0,0,2.3246311,576.91558,-581.07974)"
       x1="168.3457"
       y1="277.23438"
       x2="362.64062"
       y2="471.52908" /><linearGradient
       inkscape:collect="always"
       xlink:href="#linearGradient25"
       id="linearGradient12"
       gradientUnits="userSpaceOnUse"
       gradientTransform="matrix(2.3246311,0,0,2.3246311,576.91558,-581.07774)"
       x1="168.3457"
       y1="277.23438"
       x2="362.64062"
       y2="471.52908" /></defs><g
     inkscape:label="Calque 1"
     inkscape:groupmode="layer"
     id="layer1"><g
       id="g1"
       transform="translate(-530.62986,-15.680031)"><circle
         style="fill:#ffff00;stroke:none;stroke-width:5.00003;stroke-linecap:round;stroke-linejoin:round;stroke-miterlimit:5"
         id="path1"
         cx="150.32372"
         cy="174.09285"
         r="45.611042" /><circle
         style="fill:#ffff00;stroke:none;stroke-width:5.00003;stroke-linecap:round;stroke-linejoin:round;stroke-miterlimit:5"
         id="circle1"
         cx="150.32372"
         cy="280.73276"
         r="45.611042" /></g><g
       id="g5"
       transform="translate(-423.98995,-15.680031)"><circle
         style="fill:#ffff00;stroke:none;stroke-width:5.00003;stroke-linecap:round;stroke-linejoin:round;stroke-miterlimit:5"
         id="circle4"
         cx="150.32372"
         cy="174.09285"
         r="45.611042" /><circle
         style="fill:#ffff00;stroke:none;stroke-width:5.00003;stroke-linecap:round;stroke-linejoin:round;stroke-miterlimit:5"
         id="circle5"
         cx="150.32372"
         cy="280.73276"
         r="45.611042" /></g><path
       style="fill:#0000ff;stroke:#00ffff;stroke-width:24.3601;stroke-linecap:butt;stroke-linejoin:round;stroke-miterlimit:5"
       d="m -228.05519,112.80178 -197.862,197.86199"
       id="path5" /><g
       id="g8"
       transform="matrix(1.3516881,0,0,1.3516881,-698.71702,-321.50867)"
       style="stroke:#ff00ff;stroke-width:0.739816"><path
         style="fill:#0000ff;stroke:#ff00ff;stroke-width:18.022;stroke-linecap:round;stroke-linejoin:round;stroke-miterlimit:5"
         d="m 339.19197,409.21455 -49.4655,49.4655"
         id="path7" /><path
         style="fill:#0000ff;stroke:#ff00ff;stroke-width:18.022;stroke-linecap:round;stroke-linejoin:round;stroke-miterlimit:5"
         d="m 289.72647,409.21455 49.4655,49.4655"
         id="path8" /></g><g
       id="g10"
       transform="matrix(1.3516881,0,0,1.3516881,-805.35693,-428.14858)"
       style="stroke:#ff00ff;stroke-width:0.739816"><path
         style="fill:#0000ff;stroke:#ff00ff;stroke-width:18.022;stroke-linecap:round;stroke-linejoin:round;stroke-miterlimit:5"
         d="m 339.19197,409.21455 -49.4655,49.4655"
         id="path9" /><path
         style="fill:#0000ff;stroke:#ff00ff;stroke-width:18.022;stroke-linecap:round;stroke-linejoin:round;stroke-miterlimit:5"
         d="m 289.72647,409.21455 49.4655,49.4655"
         id="path10" /></g><path
       id="circle11"
       style="fill:url(#linearGradient26);fill-opacity:1;stroke:none;stroke-width:32;stroke-linecap:round;stroke-linejoin:round;stroke-miterlimit:5;stroke-dasharray:none"
       d="m 54.333705,26.022721 a 28.314123,28.314123 0 0 0 -20.018165,8.295121 28.314123,28.314123 0 0 0 0,40.040841 L 92.009071,132.05221 34.31554,189.74575 a 28.314123,28.314123 0 0 0 0,40.04086 28.314123,28.314123 0 0 0 40.040864,0 l 57.693536,-57.69353 57.69353,57.69353 a 28.314123,28.314123 0 0 0 40.04086,0 28.314123,28.314123 0 0 0 0,-40.04086 L 172.0908,132.05221 229.78433,74.358683 a 28.314123,28.314123 0 0 0 0,-40.040841 28.314123,28.314123 0 0 0 -20.01816,-8.295121 28.314123,28.314123 0 0 0 -20.0227,8.295121 L 132.04994,92.01135 74.356404,34.317842 A 28.314123,28.314123 0 0 0 54.333705,26.022721 Z m 325.616355,0 A 106.02885,106.02885 0 0 0 273.92054,132.05221 106.02885,106.02885 0 0 0 379.95006,238.08173 106.02885,106.02885 0 0 0 485.97955,132.05221 106.02885,106.02885 0 0 0 379.95006,26.022721 Z M 132.04994,273.92282 A 106.02885,106.02885 0 0 0 26.020419,379.95234 106.02885,106.02885 0 0 0 132.04994,485.9773 106.02885,106.02885 0 0 0 238.07945,379.95234 106.02885,106.02885 0 0 0 132.04994,273.92282 Z m 170.18389,0 a 28.314123,28.314123 0 0 0 -20.0227,8.29059 28.314123,28.314123 0 0 0 0,40.0454 l 57.69351,57.69353 -57.69351,57.69353 a 28.314123,28.314123 0 0 0 0,40.04086 28.314123,28.314123 0 0 0 40.0454,0 l 57.69353,-57.69353 57.69353,57.69353 a 28.314123,28.314123 0 0 0 40.04087,0 28.314123,28.314123 0 0 0 0,-40.04086 l -57.69354,-57.69353 57.69354,-57.69353 a 28.314123,28.314123 0 0 0 0,-40.0454 28.314123,28.314123 0 0 0 -20.02273,-8.29059 28.314123,28.314123 0 0 0 -20.01814,8.29059 l -57.69353,57.69353 -57.69353,-57.69353 a 28.314123,28.314123 0 0 0 -20.0227,-8.29059 z" /><path
       style="fill:#ffffff;stroke-width:16;stroke-linejoin:round;stroke-miterlimit:5;fill-opacity:1;stroke:none;stroke-dasharray:none"
       d="M 465.95685,5.9999993 6.0022769,465.95916 46.043118,506 505.99772,46.04542 Z"
       id="path13" /><rect
       style="fill:#ffffff;stroke:#000000;stroke-width:5;stroke-linecap:round;stroke-linejoin:round;stroke-dasharray:none"
       id="rect4"
       width="795"
       height="795"
       x="792.44171"
       y="-112.4279"
       inkscape:export-filename="pwa\maskable_icon.png"
       inkscape:export-xdpi="96"
       inkscape:export-ydpi="96" /><path
       id="path4"
       style="fill:url(#linearGradient12);fill-opacity:1;stroke:#000000;stroke-width:32;stroke-linecap:round;stroke-linejoin:round;stroke-miterlimit:5;stroke-dasharray:none"
       d="m 988.27544,55.094809 a 28.314123,28.314123 0 0 0 -20.0182,8.29512 28.314123,28.314123 0 0 0 0,40.040841 l 57.69356,57.69353 -57.69356,57.69354 a 28.314123,28.314123 0 0 0 0,40.04086 28.314123,28.314123 0 0 0 40.04086,0 l 57.6935,-57.69353 57.6936,57.69353 a 28.314123,28.314123 0 0 0 40.0408,0 28.314123,28.314123 0 0 0 0,-40.04086 l -57.6935,-57.69354 57.6935,-57.69353 a 28.314123,28.314123 0 0 0 0,-40.040841 28.314123,28.314123 0 0 0 -20.0181,-8.29512 28.314123,28.314123 0 0 0 -20.0227,8.29512 l -57.6936,57.693511 -57.6935,-57.693511 a 28.314123,28.314123 0 0 0 -20.02266,-8.29512 z m 325.61626,0 A 106.02885,106.02885 0 0 0 1207.8622,161.1243 106.02885,106.02885 0 0 0 1313.8917,267.15382 106.02885,106.02885 0 0 0 1419.9212,161.1243 106.02885,106.02885 0 0 0 1313.8917,55.094809 Z M 1065.9916,302.99491 a 106.02885,106.02885 0 0 0 -106.02946,106.02952 106.02885,106.02885 0 0 0 106.02946,106.025 106.02885,106.02885 0 0 0 106.0295,-106.025 106.02885,106.02885 0 0 0 -106.0295,-106.02952 z m 170.1839,0 a 28.314123,28.314123 0 0 0 -20.0227,8.29059 28.314123,28.314123 0 0 0 0,40.0454 l 57.6935,57.69353 -57.6935,57.6936 a 28.314123,28.314123 0 0 0 0,40.0408 28.314123,28.314123 0 0 0 40.0454,0 l 57.6935,-57.6935 57.6936,57.6935 a 28.314123,28.314123 0 0 0 40.0408,0 28.314123,28.314123 0 0 0 0,-40.0408 l -57.6935,-57.6936 57.6935,-57.69353 a 28.314123,28.314123 0 0 0 0,-40.0454 28.314123,28.314123 0 0 0 -20.0227,-8.29059 28.314123,28.314123 0 0 0 -20.0181,8.29059 l -57.6936,57.69353 -57.6935,-57.69353 a 28.314123,28.314123 0 0 0 -20.0227,-8.29059 z" /><path
       id="path6"
       style="fill:url(#linearGradient11);fill-opacity:1;stroke:none;stroke-width:16;stroke-linecap:round;stroke-linejoin:round;stroke-miterlimit:5;stroke-dasharray:none"
       d="m 988.27544,55.092799 a 28.314123,28.314123 0 0 0 -20.0182,8.29512 28.314123,28.314123 0 0 0 0,40.040841 l 57.69356,57.69353 -57.69356,57.69354 a 28.314123,28.314123 0 0 0 0,40.04086 28.314123,28.314123 0 0 0 40.04086,0 l 57.6935,-57.69353 57.6936,57.69353 a 28.314123,28.314123 0 0 0 40.0408,0 28.314123,28.314123 0 0 0 0,-40.04086 l -57.6935,-57.69354 57.6935,-57.69353 a 28.314123,28.314123 0 0 0 0,-40.040841 28.314123,28.314123 0 0 0 -20.0181,-8.29512 28.314123,28.314123 0 0 0 -20.0227,8.29512 l -57.6936,57.693511 -57.6935,-57.693511 a 28.314123,28.314123 0 0 0 -20.02266,-8.29512 z m 325.61626,0 A 106.02885,106.02885 0 0 0 1207.8622,161.12229 106.02885,106.02885 0 0 0 1313.8917,267.15181 106.02885,106.02885 0 0 0 1419.9212,161.12229 106.02885,106.02885 0 0 0 1313.8917,55.092799 Z M 1065.9916,302.9929 A 106.02885,106.02885 0 0 0 959.96214,409.02242 106.02885,106.02885 0 0 0 1065.9916,515.04743 106.02885,106.02885 0 0 0 1172.0211,409.02242 106.02885,106.02885 0 0 0 1065.9916,302.9929 Z m 170.1839,0 a 28.314123,28.314123 0 0 0 -20.0227,8.29059 28.314123,28.314123 0 0 0 0,40.0454 l 57.6935,57.69353 -57.6935,57.69361 a 28.314123,28.314123 0 0 0 0,40.0408 28.314123,28.314123 0 0 0 40.0454,0 l 57.6935,-57.6935 57.6936,57.6935 a 28.314123,28.314123 0 0 0 40.0408,0 28.314123,28.314123 0 0 0 0,-40.0408 l -57.6935,-57.69361 57.6935,-57.69353 a 28.314123,28.314123 0 0 0 0,-40.0454 28.314123,28.314123 0 0 0 -20.0227,-8.29059 28.314123,28.314123 0 0 0 -20.0181,8.29059 l -57.6936,57.69353 -57.6935,-57.69353 a 28.314123,28.314123 0 0 0 -20.0227,-8.29059 z" /><path
       style="fill:#000000;fill-opacity:1;stroke:#000000;stroke-width:16;stroke-linejoin:round;stroke-miterlimit:5;stroke-dasharray:none"
       d="M 1399.8985,35.072089 939.94399,495.03123 979.98479,535.07213 1439.9394,75.117519 Z"
       id="path11" /></g></svg>
