<?xml version="1.0" standalone="no"?>
<!DOCTYPE svg PUBLIC "-//W3C//DTD SVG 1.1//EN" "http://www.w3.org/Graphics/SVG/1.1/DTD/svg11.dtd" >
<svg xmlns="http://www.w3.org/2000/svg">
<metadata>Generated by IcoMoon</metadata>
<defs>
<font id="MorpionRemixIcon" horiz-adv-x="1024">
<font-face units-per-em="1024" ascent="960" descent="-64" />
<missing-glyph horiz-adv-x="1024" />
<glyph unicode="&#x20;" horiz-adv-x="512" d="" />
<glyph unicode="&#xe900;" glyph-name="numbers" d="M155.525 844.665v-65.126h102.1v-284.601h106.469v386.5zM755.5 878.938c-3.043-0.054-6.058-0.184-9.063-0.344-56.189-1.541-113.527-28.725-142.625-78.187l79.062-44.094c9.998 16.275 26.283 28.369 44.656 33.5 22.249 5.587 52.27 5.641 66.125-15.937 12.834-24.689-1.577-53.711-20.187-71.187-49.568-47.569-108.679-82.816-174.797-126.204v-81.546h329.991v84.437h-157.264c37.399 35.957 78.805 68.189 110.726 109.375 29.82 41.365 34.389 104.15-0.969 143.812-30.782 35.668-80.013 47.182-125.656 46.375zM128.156 401.063v-82.281h159.581c-22.409-24.202-44.81-48.392-67.219-72.594v-67.25c23.273-0.566 35.618 1.601 58.669-2.281 17.013-2.268 33.656-15.863 32.375-34.281 1.125-20.932-19.244-34.563-37.875-37.313-43.599-6.473-89.58 4.972-126.187 29.25l-38.719-80.125c29.988-18.584 64.54-28.556 99.219-33.719 53.689-7.062 112.984-5.495 159.281 25.937 42.441 27.165 62.722 83.777 46.281 131.562-12.995 39.568-51.388 65.571-91.25 72.5 25.994 27.966 51.974 55.94 77.969 83.906v66.688zM737.594 391.031l-168.875-235v-69.406h210.382v-72.063h92.399v72.063h55.938v84.438h-55.938v64h-89.18v-64h-87.757l153.281 219.969z" />
<glyph unicode="&#xe901;" glyph-name="package" d="M512 959.219c-66.962 1.335-118.97-45.533-175.215-74.766-72.933-43.523-147.905-83.873-219.469-129.527-51.532-38.214-73.003-104.329-67.847-166.565 0.547-108.582-1.114-217.234 0.866-325.77 5.022-65.896 51.704-120.906 110-148.336 93.487-53.757 185.904-109.499 280.077-161.985 59.341-28.676 130.066-15.135 182.454 21.851 92.927 54.728 187.053 107.543 279.212 163.496 54.418 37.635 78.005 105.855 72.485 170.023-0.548 108.582 1.115 217.235-0.867 325.77-5.032 65.902-51.736 120.898-110.029 148.338-93.488 53.764-185.901 109.525-280.079 162.010-22.395 10.191-46.987 15.478-71.588 15.461zM512 878.969c45.22-1.736 79.758-35.162 118.691-54.393 74.573-43.714 149.719-86.497 223.934-130.794-43.771-25.469-87.542-50.937-131.312-76.406-114.333 66.552-228.667 133.104-343 199.656 37.903 19.802 72.379 47.514 113.46 60.138 5.997 1.196 12.112 1.8 18.228 1.799zM300.625 770.625c114.333-66.542 228.667-133.083 343-199.625-43.875-25.542-87.75-51.083-131.625-76.625-114.198 66.469-228.396 132.937-342.594 199.406 43.298 26.317 87.549 51.127 131.219 76.844zM129.563 624.188c114.198-66.448 228.396-132.896 342.594-199.344 0-132.885 0-265.771 0-398.656-100.855 57.422-200.911 116.384-301.163 174.888-38.677 23.595-44.701 70.901-41.837 112.080 0.267 103.674-0.536 207.376 0.406 311.033zM894.469 624.188c0.332-118.886 1.213-237.897-0.454-356.741-3.659-46.336-45.333-71.051-82.112-90.533-86.771-50.086-172.868-101.422-260.061-150.725 0 132.885 0 265.771 0 398.656 114.208 66.448 228.417 132.896 342.625 199.344z" />
<glyph unicode="&#xe902;" glyph-name="palette" d="M503.5 923.156c-197.41 1.918-369.313-139.165-435.812-316.531-46.698-117.778-42.357-253.32 15.094-367.344 54.163-120.149 159.938-204.386 270.969-243.062 111.3-38.77 233.257-33.169 311.812 42.875 31.699 30.685 50.222 58.984 55.625 89.281s-5.657 57.626-16.906 75.375c-11.249 17.749-22.238 30.015-26.219 36.969s-3.559 2.156-1.656 6.5c9.097 20.778 11.827 20.936 21.969 23.844s32.342 2.937 63.906 3.313c78.333 0.932 138.345 36.212 174.562 82.312s51.078 100.8 51.375 148c0.916 145.485-109.662 313.576-289 382.562-62.571 25.9-129.544 36.722-195.719 35.906zM514.75 843.344c53.306-0.493 106.008-10.027 154.219-30.031l0.469-0.25 0.469-0.219c147.895-56.597 239.016-205.925 238.375-307.687-0.187-29.636-11.169-69.43-34.375-98.969s-56.309-51.081-112.563-51.75c-28.926-0.345-55.367 2.131-85.031-6.375s-57.82-33.6-73.25-68.844c-12.236-27.949-4.98-59.68 5.688-78.312s22.045-30.591 27.969-39.938c5.924-9.346 6.85-12.010 5.688-18.531s-7.633-21.865-32.5-45.938c-49.249-47.676-137.976-56.678-229.813-24.688s-181.337 103.666-224.906 200.906l-0.344 0.938-0.469 0.844c-46.989 92.659-50.66 206.062-12.156 302.937l0.094 0.344 0.125 0.375c55.29 147.809 202.421 266.886 360.594 265.156h1.062c3.558 0.047 7.103 0.064 10.656 0.031zM410.063 735.688c-44.183 0-80-35.817-80-80v0c0-44.183 35.817-80 80-80v0c44.183 0 80 35.817 80 80v0c0 44.183-35.817 80-80 80v0zM613.969 735.688c-44.183 0-80-35.817-80-80v0c0-44.183 35.817-80 80-80v0c44.183 0 80 35.817 80 80v0c0 44.183-35.817 80-80 80v0zM265.875 591.5c-44.183 0-80-35.817-80-80v0c0-44.183 35.817-80 80-80v0c44.183 0 80 35.817 80 80v0c0 44.183-35.817 80-80 80v0zM758.125 591.5c-44.183 0-80-35.817-80-80v0c0-44.183 35.817-80 80-80v0c44.183 0 80 35.817 80 80v0c0 44.183-35.817 80-80 80v0z" />
<glyph unicode="&#xe903;" glyph-name="palette_filled" d="M497.906 888.313c-177.961 1.946-337.624-128.382-398.5-291.125-42.742-107.537-38.767-232.313 13.719-335.812 97.612-217.855 391.162-312.315 518.969-188.594 113.132 109.515-26.245 130.852 2.031 195.437 24.527 56.022 61.635 50.468 122.125 51.188 134.586 1.601 185.891 113.665 186.375 190.5 0.779 123.728-100.127 282.613-263.969 345.312-57.124 23.703-119.059 33.908-180.75 33.094zM396.031 760.75c0.938 0.037 2.038 0.059 3.144 0.059 23.206 0 44.215-9.409 59.419-24.621v0c15.195-15.201 24.593-36.198 24.593-59.391s-9.398-44.189-24.593-59.391v0c-15.203-15.204-36.206-24.609-59.406-24.609s-44.203 9.404-59.406 24.609v0c-15.195 15.201-24.593 36.198-24.593 59.391s9.398 44.189 24.593 59.391v0c14.474 14.482 34.208 23.705 56.091 24.558l0.159 0.005zM623.875 760.75c0.938 0.037 2.038 0.059 3.144 0.059 23.206 0 44.215-9.409 59.419-24.621v0c15.195-15.201 24.593-36.198 24.593-59.391s-9.398-44.189-24.593-59.391v0c-15.203-15.204-36.206-24.609-59.406-24.609s-44.203 9.404-59.406 24.609v0c-15.195 15.201-24.593 36.198-24.593 59.391s9.398 44.189 24.593 59.391v0c14.474 14.482 34.208 23.705 56.091 24.558l0.159 0.005zM234.938 599.625c0.938 0.037 2.038 0.059 3.144 0.059 23.191 0 44.187-9.397 59.388-24.59v0c15.204-15.203 24.609-36.206 24.609-59.406s-9.404-44.203-24.609-59.406v0c-15.203-15.204-36.206-24.609-59.406-24.609s-44.203 9.404-59.406 24.609v0c-15.204 15.203-24.609 36.206-24.609 59.406s9.404 44.203 24.609 59.406v0c14.485 14.477 34.232 23.691 56.125 24.527l0.156 0.005zM785 599.625c0.938 0.037 2.038 0.059 3.144 0.059 23.191 0 44.187-9.397 59.388-24.59v0c15.204-15.203 24.609-36.206 24.609-59.406s-9.404-44.203-24.609-59.406v0c-15.203-15.204-36.206-24.609-59.406-24.609s-44.203 9.404-59.406 24.609v0c-15.204 15.203-24.609 36.206-24.609 59.406s9.404 44.203 24.609 59.406v0c14.485 14.477 34.232 23.691 56.125 24.527l0.156 0.005z" />
<glyph unicode="&#xe904;" glyph-name="pause" d="M196.922 888.266c-68.378 0-124.656-56.279-124.656-124.656v-631.219c0-68.378 56.279-124.656 124.656-124.656h107.812c68.378 0 124.656 56.279 124.656 124.656v631.219c0 68.378-56.279 124.656-124.656 124.656zM719.266 888.266c-68.378 0-124.656-56.279-124.656-124.656v-631.219c0-68.378 56.279-124.656 124.656-124.656h107.812c68.378 0 124.656 56.279 124.656 124.656v631.219c0 68.378-56.279 124.656-124.656 124.656zM196.922 808.266h107.812c25.142 0 44.656-19.514 44.656-44.656v-631.219c0-25.142-19.514-44.656-44.656-44.656h-107.812c-25.142 0-44.656 19.514-44.656 44.656v631.219c0 25.142 19.514 44.656 44.656 44.656zM719.266 808.266h107.812c25.142 0 44.656-19.514 44.656-44.656v-631.219c0-25.142-19.514-44.656-44.656-44.656h-107.812c-25.142 0-44.656 19.514-44.656 44.656v631.219c0 25.142 19.514 44.656 44.656 44.656z" />
<glyph unicode="&#xe905;" glyph-name="pencil" d="M748.35 887.958c-51.238-1.040-102.089-21.543-140.124-61.237-165.465-165.839-331.009-331.6-496.528-497.385-22.156-22.192-34.878-52.136-35.428-83.49l-2.889-164.568c-0.705-40.224 33.076-73.976 73.3-73.268l164.123 2.889c31.373 0.552 61.352 13.286 83.522 35.491 165.73 165.977 331.451 331.962 497.131 497.988 78.926 79.114 78.884 208.424-0.064 287.517l-0.285 0.286-0.286 0.286c-39.614 38.118-91.234 56.531-142.473 55.491zM749.969 807.23c30.123 0.611 60.464-10.43 84.188-33.11 47.644-48.070 47.589-124.388-0.254-172.345l-45.554-45.65-167.71 167.996 46.253 46.38c22.82 23.816 52.831 36.115 83.077 36.729zM563.244 666.598l167.71-167.996-394.149-394.784c-7.295-7.306-17.105-11.469-27.428-11.651l-154.568-2.73 2.73 154.98c0.182 10.348 4.338 20.199 11.651 27.523z" />
<glyph unicode="&#xe906;" glyph-name="pentagon" d="M511.957 914.969c-30.971 0-61.899-9.463-88.12-28.544l-332.499-242.132c-52.443-38.161-74.575-106.073-54.543-167.819l126.939-391.578c20.032-61.746 77.84-103.841 142.663-103.841h411.119c64.824 0 122.632 42.095 142.663 103.841l127.103 391.578c20.032 61.746-2.099 129.658-54.543 167.819l-332.499 242.132c-26.222 19.081-57.313 28.544-88.284 28.544zM470.845 821.627c24.682 17.96 57.706 17.96 82.388 0l332.499-241.968c24.682-17.96 34.815-49.518 25.388-78.578l-126.939-391.578c-9.428-29.060-36.155-48.394-66.664-48.394h-411.119c-30.508 0-57.072 19.334-66.5 48.394l-127.103 391.578c-9.428 29.060 0.706 60.618 25.388 78.578z" />
<glyph unicode="&#xe907;" glyph-name="percent" d="M231.969 887.938c-87.892 0-159.906-72.014-159.906-159.906s72.014-160.031 159.906-160.031c87.892 0 160.031 72.139 160.031 160.031s-72.139 159.906-160.031 159.906zM851.469 887.844c-10.952-0.863-20.554-6.017-27.238-13.761l-0.043-0.051-685.062-799.969c-6.028-6.963-9.7-16.11-9.7-26.114 0-12.117 5.388-22.976 13.898-30.311l0.052-0.044c6.954-5.996 16.077-9.647 26.052-9.647 12.15 0 23.036 5.417 30.372 13.969l0.045 0.054 685.031 799.969c5.986 6.951 9.632 16.067 9.632 26.034 0 12.143-5.411 23.023-13.954 30.359l-0.053 0.045c-6.943 5.958-16.038 9.585-25.98 9.585-1.074 0-2.138-0.042-3.191-0.125l0.139 0.009zM231.969 808c44.656 0 80.094-35.312 80.094-79.969s-35.437-80.094-80.094-80.094c-44.656 0-79.969 35.437-79.969 80.094s35.312 79.969 79.969 79.969zM792.063 328c-87.892 0-160.063-72.171-160.063-160.063s72.171-159.906 160.063-159.906c87.892 0 159.906 72.014 159.906 159.906s-72.014 160.063-159.906 160.063zM792.063 248.031c44.656 0 79.937-35.437 79.937-80.094s-35.281-79.937-79.937-79.937c-44.656 0-80.094 35.281-80.094 79.937s35.437 80.094 80.094 80.094z" />
<glyph unicode="&#xe908;" glyph-name="pin" d="M585.057 887.972c-3.761-0.088-7.497-0.379-11.222-0.87-29.806-3.938-57.84-20.697-74.142-48.993l-146.637-254.353-205.36-87.292c-38.705-16.455-49.013-70.018-19.274-99.758l137.995-137.995-182.76-182.76c-7.208-7.202-11.667-17.155-11.667-28.149s4.459-20.947 11.667-28.149v0c7.2-7.199 17.147-11.652 28.134-11.652s20.933 4.453 28.134 11.652l182.76 182.76 137.995-137.995c29.739-29.739 83.178-19.431 99.634 19.274l87.416 205.391 254.384 146.606c56.592 32.605 67.105 112.454 20.922 158.637l-264.736 264.705c-20.205 20.205-46.913 29.555-73.241 28.942zM586.488 809.57c5.389 0.044 10.915-2.179 15.543-6.808l264.705-264.736c10.58-10.58 8.613-25.887-4.352-33.356l-277.513-159.911-87.043-204.894-293.989 293.834 204.925 87.199 159.911 277.513c4.202 7.293 10.885 11.104 17.813 11.16z" />
<glyph unicode="&#xe909;" glyph-name="play" d="M305.852 871.201c-84.359 48.551-193.135-14.129-193.135-111.23v-623.943c0-97.101 108.776-159.78 193.135-111.23l542.163 311.971c84.359 48.551 84.359 173.909 0 222.459zM213.259 808.836c15.961 9.186 36.714 10.037 55.939-1.027l542.163-311.971c38.45-22.129 38.45-73.546 0-95.675l-542.163-311.971c-38.45-22.129-83.025 3.58-83.025 47.838v623.943c0 22.129 11.125 39.679 27.086 48.865z" />
<glyph unicode="&#xe90a;" glyph-name="plus" d="M512 848v-800zM112 448h800zM512.008 887.953c-0.012 0-0.026 0-0.039 0-22.064 0-39.955-17.864-40-39.917v-360.004h-360c-22.058-0.045-39.921-17.936-39.921-40 0-0.014 0-0.028 0-0.042v0.002c0-0.012 0-0.025 0-0.039 0-22.064 17.864-39.955 39.917-40h360.004v-360c0.045-22.058 17.936-39.921 40-39.921 0.014 0 0.028 0 0.041 0h-0.002c0.012 0 0.025 0 0.039 0 22.064 0 39.955 17.864 40 39.917v360.004h360c22.058 0.045 39.921 17.936 39.921 40 0 0.014 0 0.028 0 0.041v-0.002c0 0.012 0 0.026 0 0.039 0 22.064-17.864 39.955-39.917 40h-360.004v360c-0.045 22.058-17.936 39.921-40 39.921-0.014 0-0.028 0-0.042 0h0.002z" />
<glyph unicode="&#xe90b;" glyph-name="podium" d="M457.563 891.625c-65.8 0-120-54.2-120-120v-85.062h-149.25c-65.8 0-120-54.2-120-120v-442.187c0-65.8 54.2-120 120-120h647.406c65.8 0 120 54.2 120 120v237.031c0 65.8-54.2 120-120 120h-149.031v290.219c0 65.8-54.2 120-120 120zM457.563 811.656h109.125c22.565 0 40.031-17.466 40.031-40.031v-687.187h-189.219v687.187c0 22.565 17.497 40.031 40.063 40.031zM188.313 606.625h149.156v-522.187h-149.156c-22.565 0-40.031 17.372-40.031 39.938v442.187c0 22.565 17.466 40.062 40.031 40.062zM686.688 401.469h149.031c22.565 0 39.937-17.497 39.937-40.063v-237.031c0-22.565-17.372-39.938-39.937-39.938h-149.031z" />
<glyph unicode="&#xe90c;" glyph-name="power" d="M509.875 911.938c-0.009 0-0.019 0-0.029 0-22.093 0-40.002-17.91-40.002-40.002 0-0.021 0-0.042 0-0.064v0.003-382.437c0-0.009 0-0.019 0-0.029 0-22.093 17.91-40.002 40.002-40.002 0.010 0 0.020 0 0.031 0h-0.002c22.065 0.037 39.938 17.932 39.938 40.002 0 0.010 0 0.020 0 0.031v-0.002 382.437c0 0.018 0 0.039 0 0.060 0 22.070-17.873 39.965-39.934 40.002h-0.004zM686.906 732.906c-2.862-0.211-5.514-0.689-8.063-1.412l0.282 0.068c-10.414-2.881-18.928-9.584-24.116-18.467l-0.102-0.19c-3.341-5.718-5.313-12.589-5.313-19.921 0-14.817 8.056-27.752 20.026-34.664l0.193-0.103c98.853-56.694 159.686-161.845 159.688-276 0-176.208-141.696-318.188-317.5-318.187s-317.469 141.979-317.469 318.187c0.037 114.119 60.866 219.23 159.687 275.906 12.143 7.020 20.182 19.944 20.182 34.746 0 7.327-1.97 14.195-5.41 20.101l0.102-0.191c-7.028 12.111-19.935 20.125-34.713 20.125-7.353 0-14.243-1.984-20.164-5.446l0.189 0.102c-123.604-70.889-199.923-202.728-199.969-345.344 0-219.371 178.451-398.156 397.562-398.156s397.563 178.786 397.562 398.156c-0.001 142.66-76.326 274.558-199.969 345.469-5.719 3.342-12.59 5.314-19.923 5.314-0.973 0-1.938-0.035-2.893-0.103l0.128 0.007z" />
<glyph unicode="&#xe90d;" glyph-name="profile" d="M192.063 887.938c-65.8 0-120-54.2-120-120v-639.906c0-65.8 54.2-120 120-120h639.906c65.8 0 120 54.2 120 120v639.906c0 65.8-54.2 120-120 120h-639.906zM192.063 808h639.906c22.565 0 40.031-17.497 40.031-40.062v-639.906c0-22.565-17.466-40.031-40.031-40.031h-639.906c-22.565 0-40.062 17.466-40.062 40.031v639.906c0 22.565 17.497 40.062 40.062 40.062zM512 743.969c-111.057 0-201.844-90.977-201.844-202.094s90.787-202.063 201.844-202.063c111.057 0 201.844 90.945 201.844 202.063s-90.787 202.094-201.844 202.094zM512 664.031c67.766 0 121.906-54.218 121.906-122.156s-54.141-122.125-121.906-122.125c-67.766 0-121.875 54.187-121.875 122.125s54.109 122.156 121.875 122.156zM512 295.406c-100.503-0.002-195.44-23.703-262.781-70.531-10.46-7.318-17.216-19.308-17.216-32.877 0-8.561 2.69-16.494 7.27-23l-0.085 0.127c7.327-10.378 19.27-17.074 32.777-17.074 8.55 0 16.474 2.683 22.975 7.252l-0.127-0.085c47.76 33.212 129.99 56.217 217.187 56.219 87.203 0.001 169.456-23.005 217.219-56.219 6.374-4.485 14.297-7.167 22.848-7.167 13.507 0 25.451 6.695 32.693 16.948l0.084 0.126c4.496 6.379 7.185 14.312 7.185 22.873 0 13.569-6.756 25.559-17.087 32.791l-0.129 0.085c-67.346 46.831-162.303 70.533-262.813 70.531z" />
<glyph unicode="&#xe90e;" glyph-name="program" d="M224.063 887.938c-83.473 0-152-68.527-152-152v-575.906c0-83.473 68.527-152 152-152h575.906c83.473 0 152 68.527 152 152v575.906c0 83.473-68.527 152-152 152h-575.906zM224.063 808h575.906c40.238 0 72.031-31.824 72.031-72.062v-70.625h-720v70.625c0 40.238 31.824 72.062 72.062 72.062zM152 585.344h720v-425.312c0-40.238-31.793-72.031-72.031-72.031h-575.906c-40.238 0-72.062 31.793-72.062 72.031v425.312z" />
<glyph unicode="&#xe90f;" glyph-name="redo" d="M606.719 887.469c10.591-0.445 20.571-5.076 27.75-12.875 96.75-103.878 196-205.391 295.281-306.844l-295.875-307.906c-15.29-15.95-40.616-16.481-56.563-1.187-15.97 15.294-16.502 40.644-1.188 56.594l203.969 212.219h-391.063c-118.707 0-214.844-97.344-214.844-219.437s96.137-219.562 214.844-219.562c22.042-0.035 39.902-17.895 39.938-39.938 0.016-22.079-17.859-39.995-39.938-40.031-162.742 0-294.781 134.983-294.781 299.531s132.039 299.531 294.781 299.531h390.375c-54.472 55.748-145.681 149.614-203.875 212.844-14.981 16.269-13.917 41.607 2.375 56.562 7.828 7.189 18.195 10.967 28.812 10.5z" />
<glyph unicode="&#xe910;" glyph-name="reload" d="M509.281 859.375c-162.533-1.098-309.512-97.931-374.531-246.844-2.114-4.716-3.345-10.22-3.345-16.013 0-16.316 9.769-30.351 23.778-36.574l0.255-0.101c4.719-2.117 10.227-3.35 16.024-3.35 16.306 0 30.334 9.757 36.562 23.752l0.101 0.255c52.431 120.083 170.437 197.974 301.531 198.906 0.743 0.002 1.476 0.002 2.219 0h0.125c122.071-0.004 233.1-66.873 290.844-172.563h-115.312c-0.019 0-0.040 0-0.062 0-22.091 0-40-17.909-40-40 0-0.011 0-0.022 0-0.033v0.002c0.036-22.065 17.931-39.938 40-39.938 0.022 0 0.044 0 0.066 0h264.434v264.344c0 0.009 0 0.020 0 0.031 0 22.058-17.855 39.947-39.901 40h-0.005c-0.019 0-0.040 0-0.062 0-22.091 0-40-17.909-40-40 0-0.011 0-0.022 0-0.033v0.002-144.25c-71.918 129.966-209.34 212.358-359.875 212.406-0.922 0.003-1.797 0.003-2.719 0h-0.125zM72.063 369.094v-264.344c0-0.009 0-0.020 0-0.031 0-22.058 17.855-39.947 39.901-40h0.005c0.009 0 0.020 0 0.031 0 22.091 0 40 17.909 40 40 0 0.011 0 0.022 0 0.033v-0.002 144.312c71.929-130.031 209.398-212.433 360-212.437 163.535 0.005 311.828 97.018 377.25 246.844 2.117 4.719 3.35 10.227 3.35 16.024 0 16.306-9.757 30.334-23.752 36.562l-0.255 0.101c-4.716 2.114-10.22 3.345-16.013 3.345-16.316 0-30.351-9.769-36.574-23.778l-0.101-0.255c-52.774-120.859-171.953-198.902-303.906-198.906-122.069 0.004-233.068 66.874-290.812 172.562h115.312c0.009 0 0.020 0 0.031 0 22.091 0 40 17.909 40 40 0 0.022 0 0.044 0 0.066v-0.003c-0.053 22.051-17.942 39.906-40 39.906-0.011 0-0.022 0-0.033 0h-264.436z" />
<glyph unicode="&#xe911;" glyph-name="rotate" d="M527.375 855.938c-224.796 0-407.844-183.087-407.844-407.937s183.048-407.969 407.844-407.969c161.96 0.127 308.66 96.243 373.437 244.719 2.117 4.719 3.35 10.227 3.35 16.024 0 16.306-9.757 30.334-23.752 36.562l-0.255 0.101c-4.69 2.088-10.163 3.304-15.919 3.304-16.289 0-30.303-9.736-36.542-23.706l-0.101-0.254c-52.155-119.543-169.847-196.679-300.219-196.781-181.546 0-327.875 146.37-327.875 328s146.329 327.969 327.875 327.969c120.122 0.006 229.449-65.392 286.781-169.125h-126.625c-0.019 0-0.040 0-0.062 0-22.091 0-40-17.909-40-40 0-0.011 0-0.022 0-0.033v0.002c0.036-22.065 17.931-39.938 40-39.938 0.022 0 0.044 0 0.066 0h264.434v264.344c0 0.009 0 0.020 0 0.031 0 22.058-17.855 39.947-39.901 40h-0.005c-0.019 0-0.040 0-0.062 0-22.091 0-40-17.909-40-40 0-0.011 0-0.022 0-0.033v0.002-125.031c-73.96 116.896-203.523 189.757-344.625 189.75z" />
<glyph unicode="&#xe912;" glyph-name="save" d="M196.656 888c-68.378 0-124.656-56.279-124.656-124.656v-630.687c0-68.378 56.279-124.656 124.656-124.656h630.687c68.378 0 124.656 56.279 124.656 124.656v477.187c0 24.145-9.615 47.332-26.688 64.406l-187.031 187.062c-17.073 17.076-40.259 26.688-64.406 26.687h-331.062zM196.656 808h146.156v-205h331.062v205c2.958 0 5.752-1.158 7.844-3.25l187.031-187.062c2.094-2.094 3.25-4.883 3.25-7.844v-477.187c0-25.143-19.514-44.656-44.656-44.656h-35.344v328h-560v-328h-35.344c-25.142 0-44.656 19.514-44.656 44.656v630.687c0 25.142 19.514 44.656 44.656 44.656zM422.813 808h171.063v-125h-171.063zM312 336h400v-248h-400z" />
<glyph unicode="&#xe913;" glyph-name="schedule" d="M511.531 887.938c-11.701-0.113-23.414-0.236-35.063-1.406 2.362-26.535 4.7-53.058 7.063-79.594 9.476 0.597 18.969 1.060 28.469 1.063 0.157 0 0.312 0 0.469 0 199.078-0.252 359.531-160.862 359.531-360 0-199.295-160.705-360-360-360-199.138 0-359.748 160.454-360 359.531 0 0.073 0 0.146 0 0.219v0.25c0.060 10.96 0.457 21.902 1.531 32.813l-79.719 7.094c-1.363-13.102-1.679-26.272-1.75-39.437v-0.469c0-242.53 197.407-439.969 439.937-439.969s439.969 197.439 439.969 439.969c0 242.53-197.439 439.938-439.969 439.937h-0.469zM390 870.813c-28.146-8.038-55.435-19.044-81.375-32.594l37.312-70.75c21.294 11.155 43.749 20.065 66.844 26.719l-22.781 76.625zM235.406 790.156c-22.748-18.298-43.521-39.023-62.25-61.406l61.062-51.75c15.448 18.551 32.656 35.658 51.375 50.906l-50.187 62.25zM512 761.219c-22.115 0.016-40.047-17.916-40.031-40.031v-145.281c0.021-10.81 0.007-21.627 0-32.438v-8.875c-0.027-29.474-0.074-58.94 0.125-88.406 0.086-13.258 8.303-24.309 17.906-32.625l141.656-138.375c15.819-15.419 41.141-15.097 56.563 0.719 15.427 15.81 15.12 41.132-0.688 56.563l-135.469 132.312v256.406c0.016 22.127-17.935 40.064-40.062 40.031zM123.781 655.281c-13.753-25.87-25.065-53.075-33.437-81.156l76.781-22.781c6.714 23.102 16.138 45.354 27.406 66.594l-70.75 37.344z" />
<glyph unicode="&#xe914;" glyph-name="search" d="M440.719 888c-94.514 0-189.028-35.934-260.906-107.812-143.757-143.757-143.757-378.055 0-521.812 134.204-134.204 347.309-143.118 492-26.75l211.875-211.906c7.24-7.246 17.245-11.728 28.297-11.728s21.057 4.482 28.297 11.728v0c7.246 7.24 11.728 17.245 11.728 28.297s-4.482 21.057-11.728 28.297l-211.907 211.875c116.368 144.691 107.454 357.796-26.75 492-71.879 71.879-166.393 107.812-260.906 107.812zM440.719 808.531c73.887 0 147.783-28.283 204.375-84.875 113.184-113.184 113.184-295.566 0-408.75s-295.566-113.184-408.75 0c-113.184 113.184-113.184 295.566 0 408.75 56.592 56.592 130.488 84.875 204.375 84.875z" />
<glyph unicode="&#xe915;" glyph-name="send" d="M77.125 887.375l31.062-92.375 116.469-347-147.531-439.375 869.281 439.375-869.281 439.375zM214.969 728.031l474.844-240h-394.281l-80.562 240zM295.531 407.938h394.25l-474.812-240 80.562 240z" />
<glyph unicode="&#xe916;" glyph-name="settings" d="M951.969 728.031c-0.053 22.018-17.888 39.853-39.901 39.906h-29.286c-17.915 68.737-80.617 120-154.719 120s-136.828-51.263-154.75-120h-461.344c-22.018-0.053-39.853-17.888-39.906-39.901v-0.005c0-0.009 0-0.020 0-0.031 0-22.058 17.855-39.947 39.901-40h461.38c17.96-68.709 80.656-120 154.719-120s136.734 51.291 154.687 120h29.313c22.051 0.053 39.906 17.942 39.906 40 0 0.011 0 0.022 0 0.033v-0.002zM951.969 448c0 0.009 0 0.020 0 0.031 0 22.058-17.855 39.947-39.901 40h-461.38c-17.953 68.709-80.625 120-154.687 120-74.064 0-136.67-51.289-154.594-120h-29.438c-22.051-0.053-39.906-17.942-39.906-40 0-0.011 0-0.022 0-0.033v0.002c0-0.019 0-0.041 0-0.063 0-22.058 17.855-39.947 39.901-40h29.443c17.934-68.703 80.541-120 154.594-120s136.724 51.299 154.687 120h461.375c22.051 0.053 39.906 17.942 39.906 40 0 0.022 0 0.044 0 0.066v-0.003zM951.969 167.938c0 0.019 0 0.040 0 0.062 0 22.058-17.855 39.947-39.901 40h-29.318c-17.964 68.701-80.636 120-154.687 120s-136.748-51.299-154.719-120h-461.375c-22.051-0.053-39.906-17.942-39.906-40 0-0.022 0-0.044 0-0.066v0.003c0.053-22.018 17.888-39.853 39.901-39.906h461.349c17.922-68.737 80.648-120 154.75-120s136.804 51.263 154.719 120h29.281c22.018 0.053 39.853 17.888 39.906 39.901v0.005zM808 728.031c0-44.656-35.281-80.094-79.937-80.094s-79.969 35.437-79.969 80.094c0 44.656 35.312 79.969 79.969 79.969s79.937-35.312 79.937-79.969zM808 167.938c0-44.656-35.281-79.937-79.937-79.937s-79.969 35.281-79.969 79.937c0 44.656 35.312 80.094 79.969 80.094s79.937-35.437 79.937-80.094zM376.094 448c0-44.656-35.437-79.969-80.094-79.969s-79.969 35.312-79.969 79.969c0 44.656 35.312 79.938 79.969 79.938s80.094-35.281 80.094-79.938z" />
<glyph unicode="&#xe917;" glyph-name="sort" d="M76.006 257.131c0.214-11.036 4.866-20.945 12.238-28.051l0.012-0.012 199.281-191.531c0.145-0.147 0.287-0.288 0.431-0.429l0.006-0.006 28.375-27.25 27.625 27.156c0 0 134.958 132.388 199.125 191.469 7.944 7.333 12.902 17.799 12.902 29.423 0 10.442-4.001 19.949-10.553 27.072l0.026-0.028c-7.336 7.972-17.82 12.949-29.466 12.949-10.482 0-20.022-4.032-27.155-10.629l0.027 0.024c-40.071-36.895-93.939-89.054-132.875-127.031v685.937c0 0.009 0 0.020 0 0.031 0 22.091-17.909 40-40 40-0.011 0-0.022 0-0.033 0h0.002c-0.009 0-0.020 0-0.031 0-22.091 0-40-17.909-40-40 0-0.011 0-0.022 0-0.033v0.002-686.594l-132.281 127.094c-7.176 6.897-16.943 11.145-27.701 11.145-11.288 0-21.484-4.676-28.757-12.196l-0.011-0.011c-6.927-7.182-11.194-16.969-11.194-27.753 0-0.263 0.003-0.525 0.008-0.786l-0.001 0.039zM468.068 638.974c-0.005-0.241-0.008-0.525-0.008-0.809 0-10.769 4.256-20.544 11.177-27.735l-0.012 0.013c7.287-7.559 17.502-12.254 28.812-12.254 10.783 0 20.569 4.266 27.762 11.203l-0.012-0.012 132.281 127.125v-686.625c0-0.009 0-0.020 0-0.031 0-22.091 17.909-40 40-40 0.011 0 0.022 0 0.033 0h-0.002c22.065 0.036 39.938 17.931 39.938 40 0 0.011 0 0.022 0 0.033v-0.002 686.031c38.943-37.984 92.866-90.201 132.969-127.125 7.095-6.527 16.603-10.528 27.045-10.528 11.624 0 22.091 4.959 29.399 12.876l0.025 0.027c6.526 7.095 10.527 16.602 10.527 27.043 0 11.609-4.945 22.063-12.844 29.37l-0.027 0.024c-64.167 59.081-199.031 191.344-199.031 191.344l-27.75 27.281-227.969-219.219c-7.4-7.102-12.072-16.998-12.312-27.987l-0.001-0.044z" />
<glyph unicode="&#xe918;" glyph-name="square" d="M192.047 887.953c-65.8 0-120-54.2-120-120v-639.921c0-65.8 54.2-120 120-120h639.921c65.8 0 120 54.2 120 120v639.921c0 65.8-54.2 120-120 120h-639.921zM192.047 807.992h639.921c22.565 0 40.039-17.474 40.039-40.039v-639.921c0-22.565-17.474-40.039-40.039-40.039h-639.921c-22.565 0-40.039 17.474-40.039 40.039v639.921c0 22.565 17.474 40.039 40.039 40.039z" />
<glyph unicode="&#xe919;" glyph-name="squares" d="M175.625 888c-56.689 0-103.5-46.811-103.5-103.5v-191.125c0-56.689 46.811-103.5 103.5-103.5h191.25c56.689 0 103.5 46.811 103.5 103.5v191.125c0 56.689-46.811 103.5-103.5 103.5zM657.125 888c-56.689 0-103.5-46.811-103.5-103.5v-191.125c0-56.689 46.811-103.5 103.5-103.5h191.25c56.689 0 103.5 46.811 103.5 103.5v191.125c0 56.689-46.811 103.5-103.5 103.5zM175.625 808h191.25c13.451 0 23.5-10.049 23.5-23.5v-191.125c0-13.451-10.049-23.5-23.5-23.5h-191.25c-13.451 0-23.5 10.049-23.5 23.5v191.125c0 13.451 10.049 23.5 23.5 23.5zM657.125 808h191.25c13.451 0 23.5-10.049 23.5-23.5v-191.125c0-13.451-10.049-23.5-23.5-23.5h-191.25c-13.451 0-23.5 10.049-23.5 23.5v191.125c0 13.451 10.049 23.5 23.5 23.5zM175.375 406.125c-56.689 0-103.5-46.811-103.5-103.5v-191.125c0-56.689 46.811-103.5 103.5-103.5h191.281c56.689 0 103.5 46.811 103.5 103.5v191.125c0 56.689-46.811 103.5-103.5 103.5zM656.875 406.125c-56.689 0-103.5-46.811-103.5-103.5v-191.125c0-56.689 46.811-103.5 103.5-103.5h191.281c56.689 0 103.5 46.811 103.5 103.5v191.125c0 56.689-46.811 103.5-103.5 103.5zM175.375 326.125h191.281c13.451 0 23.5-10.049 23.5-23.5v-191.125c0-13.451-10.049-23.5-23.5-23.5h-191.281c-13.451 0-23.5 10.049-23.5 23.5v191.125c0 13.451 10.049 23.5 23.5 23.5zM656.875 326.125h191.281c13.451 0 23.5-10.049 23.5-23.5v-191.125c0-13.451-10.049-23.5-23.5-23.5h-191.281c-13.451 0-23.5 10.049-23.5 23.5v191.125c0 13.451 10.049 23.5 23.5 23.5z" />
<glyph unicode="&#xe91a;" glyph-name="star" d="M512 938.719c-17.522 0-35.037-8.468-43-25.406l-129.094-274.531-300.469-38.094c-37.118-4.705-53.873-56.141-26.625-81.781l220.813-207.813-56.688-298.094c-6.994-36.767 36.805-68.576 69.594-50.531l265.469 146.094 265.469-146.094c32.789-18.045 76.588 13.764 69.594 50.531l-56.688 298.094 220.813 207.813c27.248 25.641 10.493 77.076-26.625 81.781l-300.469 38.094-129.094 274.531c-7.963 16.938-25.478 25.406-43 25.406zM512 816.75l102.219-217.406c10.042-21.362 30.427-36.188 53.844-39.156l238.156-30.188-175-164.688c-17.177-16.163-24.97-40.111-20.562-63.281l44.906-236.188-210.25 115.719c-20.69 11.386-45.935 11.386-66.625 0l-210.25-115.719 44.906 236.188c4.407 23.17-3.386 47.118-20.562 63.281l-175 164.688 238.156 30.188c23.417 2.968 43.802 17.794 53.844 39.156z" />
<glyph unicode="&#xe91b;" glyph-name="target" d="M512 960c-0.009 0-0.020 0-0.031 0-22.091 0-40-17.909-40-40 0-0.011 0-0.022 0-0.033v0.002-56.281c-198.295-18.976-356.68-177.361-375.656-375.656h-56.281c-0.009 0-0.020 0-0.031 0-22.091 0-40-17.909-40-40 0-0.011 0-0.022 0-0.033v0.002c0-0.019 0-0.040 0-0.062 0-22.091 17.909-40 40-40 0.011 0 0.022 0 0.033 0h56.28c18.989-198.282 177.37-356.682 375.656-375.656v-56.25c0-0.019 0-0.040 0-0.062 0-22.091 17.909-40 40-40 0.011 0 0.022 0 0.033 0h-0.002c0.019 0 0.041 0 0.062 0 22.091 0 40 17.909 40 40 0 0.022 0 0.044 0 0.066v-0.003 56.25c198.272 18.988 356.669 177.384 375.656 375.656h56.25c0.019 0 0.041 0 0.062 0 22.091 0 40 17.909 40 40 0 0.022 0 0.044 0 0.066v-0.003c0 0.009 0 0.020 0 0.031 0 22.091-17.909 40-40 40-0.022 0-0.044 0-0.066 0h-56.247c-18.974 198.286-177.375 356.667-375.656 375.656v56.281c0 0.009 0 0.020 0 0.031 0 22.091-17.909 40-40 40-0.022 0-0.044 0-0.066 0h0.003zM471.969 783.188v-91.531c0.036-22.065 17.931-39.938 40-39.938 0.011 0 0.022 0 0.033 0h-0.002c0.019 0 0.041 0 0.062 0 22.069 0 39.964 17.873 40 39.934v91.534c154.795-18.173 276.997-140.357 295.156-295.156h-91.562c-22.051-0.053-39.906-17.942-39.906-40 0-0.011 0-0.022 0-0.033v0.002c0-0.019 0-0.041 0-0.063 0-22.058 17.855-39.947 39.901-40h91.567c-18.172-154.784-140.372-276.985-295.156-295.156v91.562c-0.053 22.051-17.942 39.906-40 39.906-0.022 0-0.044 0-0.066 0h0.003c-0.009 0-0.020 0-0.031 0-22.058 0-39.947-17.855-40-39.901v-91.567c-154.799 18.159-276.983 140.362-295.156 295.156h91.531c22.065 0.036 39.938 17.931 39.938 40 0 0.022 0 0.044 0 0.066v-0.003c0 0.009 0 0.020 0 0.031 0 22.069-17.873 39.964-39.934 40h-91.534c18.16 154.809 140.347 276.996 295.156 295.156z" />
<glyph unicode="&#xe91c;" glyph-name="tennis_ball" d="M513.563 887.438c-25.404 0.037-50.886-2.103-76.187-6.531-0.005 0-0.010 0-0.016 0s-0.011 0-0.016 0h0.001c-115.001-19.986-217.374-84.841-284.531-180.312-0.002 0.012-0.106-0.172-0.208-0.357l-0.104-0.205c-7.403-10.027-14.483-20.385-21-31-0.066-0.104-0.233-0.421-0.395-0.741l-0.105-0.228c-62.206-108.191-72.214-237.084-33.687-355.25 0.020-0.272 0.031-0.401 0.043-0.53l-0.011 0.155c0.235-0.719 0.306-1.456 0.437-2.188-0.001-0.088-0.001-0.193-0.001-0.297 0-2.613 0.251-5.168 0.729-7.642l-0.041 0.252c0.115-1.98 0.33-3.94 1.031-5.844l0.062 0.063 0.594 0.688c0.266-0.881 0.468-1.473 0.683-2.059l-0.089 0.277-1.188 1.094c35.318-96.692 103.336-178.026 192.375-229.688-0.236 0.050-0.194 0.039-0.152 0.029l0.277-0.060c89.269-51.497 193.783-70.022 295.312-52.344 128.468 22.306 240.552 100.473 305.781 213.375-0.050-0.236-0.039-0.194-0.029-0.152l0.060 0.277c6.627 11.534 12.726 23.351 18.281 35.438 48.486 105.609 53.166 226.212 13.125 335.281-0.119 0.47-0.172 0.658-0.227 0.845l0.071-0.283c-35.248 96.676-103.352 177.971-192.312 229.687 0.21-0.050 0.137-0.029 0.064-0.008l-0.283 0.070c-44.563 25.535-92.844 42.822-142.687 51.562h-0.031c-24.917 4.366-50.232 6.588-75.625 6.625zM546.375 804.406c9.715-0.015 19.395-0.603 28.969-2.281 40.786-7.15 80.336-21.415 116.812-42.312 58.987-34.35 102.496-87.157 133.75-147.125-4.822-1.484-9.609-3.038-14.375-4.687-19.796-6.856-39.006-15.209-57.625-24.813-18.622-9.604-36.591-20.531-53.656-32.687-0.295-0.156-0.387-0.207-0.479-0.26l0.197 0.103c-5.909-4.278-11.668-8.753-17.344-13.312-2.669 1.961-5.316 3.974-8 5.906-0.050-0.236-0.039-0.194-0.029-0.152l0.060 0.277c-12.667 9.073-25.589 17.81-38.687 26.25-13.093 8.44-26.477 16.494-39.969 24.281-29.807 17.209-60.497 32.801-91.969 46.687 0.321 2.146 0.654 4.288 0.937 6.438 0.935 7.108 1.601 14.292 2.187 21.437l0.031 0.094v0.031c0.585 7.123 0.981 14.295 1.219 21.438 0.234 7.202 0.307 14.483 0.188 21.687-0.122 7.191-0.37 14.324-0.844 21.5-0.469 7.152-1.12 14.316-1.938 21.437l0.031 0.125c-0.534 4.65-1.223 9.339-1.938 14-0.358 2.448-0.631 4.913-1.031 7.344 0.236-0.050 0.194-0.039 0.152-0.029l-0.277 0.060c-1.177 7.11-2.444 14.175-3.969 21.219-0.367 1.702-0.793 3.4-1.188 5.094 16.267 0.699 32.599 2.275 48.781 2.25zM418.281 789.375c0.741-3.085 1.552-6.158 2.219-9.25 1.248-5.763 2.443-11.589 3.406-17.406l-0.125 0.031c0.956-5.807 1.892-11.59 2.563-17.437 0.674-5.856 1.115-11.774 1.5-17.656 0.388-5.871 0.65-11.804 0.75-17.687 0.098-5.894 0.129-11.702-0.062-17.594l-0.094 0.031c-0.060-1.798-0.14-3.598-0.219-5.406-0.212-4.11-0.413-8.228-0.75-12.313-0.123-1.507-0.355-2.996-0.5-4.5-22.947 7.831-46.196 14.76-69.687 20.812-4.217 1.177-8.458 2.309-12.719 3.344 0.25-0.073 0.219-0.063 0.188-0.052l-0.282 0.083c-3.177 0.77-6.368 1.46-9.563 2.125-19.86 4.602-39.829 8.676-59.937 12 41.393 37.735 88.92 65.75 143.312 80.875zM206.25 636.75c40.21-3.995 80.197-10.598 119.469-20.125 28.699-6.968 56.358-17.099 84.187-26.937-0.118-0.353-0.224-0.709-0.344-1.063-0.023-0.062-0.041-0.125-0.062-0.188-0.003-0.009 0.003-0.022 0-0.031-1.887-5.571-3.906-11.121-6.063-16.594-2.158-5.433-4.455-10.804-6.875-16.125 0.050 0.236 0.039 0.194 0.029 0.152l-0.060-0.277c-2.426-5.373-5-10.659-7.687-15.906-2.695-5.237-5.489-10.37-8.438-15.469-4.285-7.425-8.822-14.719-13.625-21.844s-9.858-14.073-15.156-20.812c-10.576-13.441-22.123-26.166-34.5-37.969-6.207-5.913-12.627-11.589-19.25-17.031s-13.453-10.656-20.437-15.625c-13.963-9.946-28.608-18.892-43.844-26.75-3.808-1.964-7.664-3.858-11.531-5.687-11.633-5.481-23.571-10.355-35.719-14.563-0.617-0.213-1.257-0.353-1.875-0.562-4.807-1.457-9.769-2.398-14.594-3.813-23.359 90.496-16.634 186.314 30.312 268.219 1.907 3.094 4.063 5.966 6.062 9zM484.031 559.375c24.266-11.176 48.85-21.665 72-35.031 12.358-7.133 24.601-14.55 36.594-22.281 5.402-3.481 10.757-7.050 16.062-10.656 4.959-3.371 9.878-6.783 14.781-10.25 0.073-0.052 0.146-0.104 0.219-0.156-4.813-5.526-9.536-11.126-14.063-16.875-3.238-4.119-6.412-8.275-9.5-12.5-0.005-0.007 0.005-0.025 0-0.031-9.26-12.668-17.867-25.8-25.719-39.406-10.482-18.147-19.677-37.014-27.469-56.469-7.776-19.452-14.164-39.452-19.094-59.813-4.942-20.359-8.35-41.082-10.344-61.938s-2.525-41.852-1.531-62.781c0.993-20.926 3.414-41.709 7.375-62.281-0.236 0.050-0.194 0.039-0.152 0.029l0.277-0.060c0.987-5.112 2.053-10.202 3.219-15.281-67.694-2.793-135.308 8.563-194.562 42.719l-0.125 0.031c-59.091 34.309-102.612 87.245-133.937 147.25 4.851 1.488 9.664 3.058 14.469 4.719 9.889 3.425 19.687 7.216 29.312 11.344 4.817 2.066 9.604 4.202 14.344 6.438s9.439 4.568 14.094 6.969c18.622 9.604 36.591 20.531 53.656 32.687 17.074 12.145 33.172 25.421 48.344 39.875-0.050-0.236-0.039-0.194-0.029-0.152l0.060 0.277c15.158 14.456 29.302 29.91 42.25 46.375 12.952 16.475 24.619 33.849 35.094 52 3.604 6.232 7.050 12.599 10.344 19-0.236 0.050-0.194 0.039-0.152 0.029l0.277-0.060c3.285 6.413 6.409 12.933 9.375 19.5l-0.156-0.094c2.977 6.547 5.848 13.158 8.5 19.844-0.050-0.236-0.039-0.194-0.029-0.152l0.060 0.277c2.2 5.583 4.194 11.241 6.156 16.906zM854.844 536.969v-0.031c14.189-54.691 13.703-109.851 1.812-164.687-3.544 4.323-7.075 8.65-10.687 12.906-10.079 11.875-20.382 23.478-31.031 34.844l-0.031-0.125c-5.324 5.691-10.697 11.314-16.156 16.875s-10.997 11.046-16.594 16.469c-11.193 10.822-22.696 21.459-34.406 31.719-0.25 0.219-0.5 0.438-0.75 0.656 6.911 4.91 14.018 9.642 21.25 14.063 7.253 4.432 14.663 8.572 22.219 12.469h0.031c15.226 7.852 31.031 14.644 47.219 20.25 5.592 1.935 11.448 2.937 17.125 4.594zM687.469 431.156c2.512-2.153 5.075-4.256 7.563-6.438 10.7-9.375 21.146-19.050 31.375-28.938 10.253-9.934 20.341-20.138 30.094-30.562 9.754-10.411 19.268-20.967 28.5-31.844 9.23-10.874 18.221-22.062 26.906-33.375 5.719-7.457 11.181-15.050 16.656-22.688-1.64-3.055-3.054-6.212-4.781-9.219-47.338-81.879-127.106-135.861-217.281-161.031-1.39 5.691-3.388 11.213-4.5 16.969-1.62 8.416-2.966 16.856-4 25.344s-1.75 17.033-2.156 25.594c-0.406 8.552-0.501 17.127-0.281 25.688 0 0.010 0 0.021 0 0.031 0.222 8.56 0.747 17.134 1.562 25.656 0.407 4.256 0.907 8.513 1.469 12.75 0.001 0.010-0.001 0.021 0 0.031 0.563 4.247 1.191 8.463 1.906 12.687 1.431 8.448 3.166 16.859 5.187 25.187 3.024 12.494 6.678 24.788 11 36.875 1.448 4.017 2.976 8.030 4.563 12 0.004 0.009-0.004 0.022 0 0.031 3.185 7.95 6.646 15.802 10.375 23.5 3.733 7.706 7.743 15.264 12.031 22.687 4.273 7.404 8.822 14.676 13.625 21.781s9.845 14.059 15.125 20.781l0.156 0.062c0.005 0.006-0.005 0.025 0 0.031 0.114 0.145 0.26 0.262 0.375 0.406 4.5 5.627 9.734 10.628 14.531 16z" />
<glyph unicode="&#xe91d;" glyph-name="thumb_up" d="M563.281 828.844c-44.042 0-84.88-23.844-106.437-62.25l-110.906-197.719h-223.562c-22.065-0.038-39.938-17.934-39.938-40.004 0-0.010 0-0.019 0-0.029v0.002-421.656c0-0.008 0-0.018 0-0.027 0-22.070 17.872-39.966 39.934-40.004h591.973c64.96 0 122.727 42.84 141.594 105l81.5 268.562c19.043 62.742-29.494 128.156-95.062 128.156h-196.906l28.937 165.844c8.439 48.379-30.016 94.125-79.125 94.125h-32zM595.781 748.938v-0.031c-0.054-0.091-0.113-0.252-0.156-0.5l-37.094-212.594c-0.378-2.066-0.594-4.443-0.594-6.871 0-22.071 17.873-39.967 39.935-40.004h244.504c14.067 0 22.617-11.477 18.531-24.937l-81.625-268.688c-8.733-28.772-34.869-48.094-64.937-48.094h-362.125v341.719h17.125c0.019 0 0.041 0 0.063 0 14.893 0 27.885 8.138 34.772 20.21l0.103 0.197 122.375 218.031c7.465 13.299 21.375 21.5 36.625 21.5h32c0.252 0 0.406 0.029 0.5 0.062zM162.406 488.938h109.844v-341.719h-109.844v341.719z" />
<glyph unicode="&#xe91e;" glyph-name="triangle" d="M88.799 241.852c-48.551-84.359 14.129-193.135 111.23-193.135h623.943c97.101 0 159.78 108.776 111.23 193.135l-311.971 542.163c-48.551 84.359-173.909 84.359-222.459 0zM151.164 149.259c-9.186 15.961-10.037 36.714 1.027 55.939l311.971 542.163c22.129 38.45 73.546 38.45 95.675 0l311.971-542.163c22.129-38.45-3.581-83.025-47.838-83.025h-623.943c-22.129 0-39.679 11.125-48.865 27.086z" />
<glyph unicode="&#xe91f;" glyph-name="undo" d="M417.281 887.469c-10.591-0.445-20.571-5.076-27.75-12.875-96.75-103.878-196-205.391-295.281-306.844l295.875-307.906c15.29-15.95 40.616-16.481 56.563-1.188 15.97 15.294 16.502 40.644 1.188 56.594l-203.969 212.219h391.062c118.707 0 214.844-97.344 214.844-219.437s-96.137-219.562-214.844-219.562c-22.042-0.035-39.902-17.895-39.938-39.938-0.016-22.079 17.859-39.995 39.938-40.031 162.742 0 294.781 134.983 294.781 299.531s-132.039 299.531-294.781 299.531h-390.375c54.472 55.748 145.681 149.614 203.875 212.844 14.981 16.269 13.917 41.607-2.375 56.562-7.828 7.189-18.195 10.967-28.812 10.5z" />
<glyph unicode="&#xe920;" glyph-name="unlock" d="M512 888c-114.96 0-209.125-93.853-209.125-208.687l-0.031-94.312h-5.781c-65.801 0-120-54.199-120-120v-336.969c0-65.8 54.199-120 120-120h429.906c65.801 0 120 54.2 120 120v336.969c0 65.801-54.199 120-120 120h-344.062l-0.031 94.312c0 71.491 57.292 128.687 129.125 128.687 57.436 0 105.492-36.995 122.531-87.937 5.47-16.009 20.382-27.316 37.936-27.316 4.54 0 8.903 0.756 12.971 2.15l-0.281-0.084c15.995 5.478 27.288 20.383 27.288 37.926 0 4.543-0.757 8.91-2.153 12.98l0.084-0.281c-27.766 83.015-106.455 142.562-198.375 142.562zM297.063 505.031h429.906c22.565 0 40.031-17.466 40.031-40.031v-336.969c0-22.565-17.466-40.031-40.031-40.031h-429.906c-22.565 0-40.062 17.466-40.062 40.031v336.969c0 22.565 17.498 40.031 40.062 40.031zM512 392.531c-53.124-0.006-96.187-42.984-96.187-96 0 0 0 0 0 0v0c0-53.016 43.063-95.994 96.187-96v0c53.124 0.006 96.187 42.984 96.187 96 0 0 0 0 0 0v0c0 53.016-43.063 95.994-96.187 96v0z" />
<glyph unicode="&#xe921;" glyph-name="unpin" d="M111.963 887.971c-11.022-0.020-20.996-4.494-28.219-11.719v0c-7.145-7.223-11.559-17.159-11.559-28.127 0-10.096 3.74-19.318 9.911-26.357l-0.039 0.046c0.926-0.577 1.67-1.082 2.395-1.611l-0.114 0.079c266.687-266.687 533.323-533.323 799.969-799.969 0.958-1.010 1.879-2.090 2.742-3.217l0.071-0.096c6.792-5.492 15.534-8.817 25.053-8.817 10.956 0 20.883 4.405 28.108 11.54l-0.004-0.004c7.246 7.24 11.728 17.245 11.728 28.297s-4.482 21.057-11.728 28.297l-241.938 241.938 203.781 117.437c56.592 32.605 67.089 112.442 20.906 158.625l-264.719 264.719c-20.205 20.205-46.922 29.551-73.25 28.938-3.761-0.088-7.493-0.383-11.219-0.875-29.806-3.938-57.853-20.704-74.156-49l-117.438-203.75-241.906 241.906c-7.239 7.24-17.24 11.719-28.287 11.719-0.031 0-0.062 0-0.092 0h0.005zM586.494 809.565c5.389 0.044 10.902-2.184 15.531-6.812l264.719-264.719c10.58-10.58 8.621-25.905-4.344-33.375l-222.344-128.125-199.5 199.5 128.125 222.375c4.202 7.293 10.884 11.1 17.812 11.156zM251.088 540.378l-103.375-43.906c-38.705-16.455-49.021-70.011-19.281-99.75l138-138-182.781-182.781c-7.203-7.201-11.659-17.151-11.659-28.141s4.455-20.939 11.659-28.141v0c7.201-7.203 17.151-11.659 28.141-11.659s20.939 4.455 28.141 11.659l182.75 182.75 138-138c29.739-29.739 83.17-19.424 99.625 19.281l44.031 103.438c-20.218 20.218-40.438 40.438-60.656 60.656l-45.844-107.906-294 293.812 108 45.938c-20.251 20.251-40.499 40.499-60.75 60.75z" />
<glyph unicode="&#xe922;" glyph-name="user" d="M512 887.938c-170.664 0-309.781-139.354-309.781-310.156s139.117-310.156 309.781-310.156c170.664 0 309.812 139.354 309.812 310.156s-139.148 310.156-309.812 310.156zM512 808c127.373 0 229.844-102.596 229.844-230.219s-102.471-230.187-229.844-230.187c-127.373 0-229.844 102.565-229.844 230.187s102.471 230.219 229.844 230.219zM512 193.688c-163.070-0.003-317.104-39.398-422.812-112.906-10.439-7.32-17.179-19.298-17.179-32.851 0-8.519 2.663-16.415 7.202-22.903l-0.086 0.129c7.318-10.46 19.308-17.216 32.877-17.216 8.561 0 16.494 2.69 23 7.27l-0.127-0.085c86.126 59.892 227.361 98.622 377.125 98.625 149.774 0.002 290.992-38.729 377.125-98.625 6.379-4.496 14.312-7.185 22.873-7.185 13.569 0 25.559 6.756 32.791 17.087l0.085 0.129c4.46 6.362 7.127 14.264 7.127 22.789 0 13.543-6.731 25.515-17.030 32.751l-0.128 0.085c-105.715 73.513-259.763 112.908-422.844 112.906z" />
<glyph unicode="&#xe923;" glyph-name="warning" d="M512 843.656c-37.207 0-74.42-17.86-95.062-53.625l-330.719-573c-41.285-71.53 12.493-164.687 95.062-164.687h661.437c82.57 0 136.347 93.158 95.062 164.687l-330.719 573c-20.642 35.765-57.856 53.625-95.062 53.625zM512 766.156c9.787 0 19.57-5.364 25.781-16.125l330.75-573c12.422-21.522-0.969-44.688-25.812-44.688h-661.437c-24.844 0-38.203 23.166-25.781 44.688l330.719 573c6.211 10.761 15.995 16.125 25.781 16.125zM512 623.969c-26.461-0.036-47.902-21.477-47.937-47.934v-192.284c0-0.028 0-0.061 0-0.094 0-26.488 21.455-47.964 47.934-48h0.003c26.496 0.018 47.969 21.501 47.969 48 0 0.033 0 0.066 0 0.099v-0.005 192.281c-0.036 26.472-21.494 47.92-47.967 47.938h-0.002zM512 288.906c-30.928 0-56-25.072-56-56v0c0-30.928 25.072-56 56-56v0c30.928 0 56 25.072 56 56v0c0 30.928-25.072 56-56 56v0z" />
<glyph unicode="&#xe924;" glyph-name="web" d="M510.938 888c-171.018 1.542-335.724-107.365-402.388-264.649-70.154-155.948-36.784-350.938 81.315-474.633 112.678-124.34 299.548-172.879 458.47-119.027 167.688 52.78 293.799 214.327 302.742 390.132 13.235 170.897-85.168 342.715-238.121 419.437-62.153 32.22-132.053 48.797-202.018 48.741zM511.75 808c37.598-10.048 52.471-53.049 67.476-85.208 9.674-31.057 30.235-76.688 23.267-101.417-61.997 0-123.995 0-185.992 0 13.437 62.617 28.992 130.234 75.309 177.354 5.577 4.695 12.352 9.158 19.941 9.271zM385.281 785.094c-25.876-51.247-40.195-107.455-50.219-163.719-46.26 0-92.521 0-138.781 0 40.822 74.83 109.083 134.025 189 163.719zM638.75 785.094c79.873-29.672 148.21-88.921 189-163.719-46.26 0-92.521 0-138.781 0-10.020 56.25-24.366 112.476-50.219 163.719zM164.219 541.313c53.51 0 107.021 0 160.531 0-5.44-62.053-5.437-124.572 0-186.625-53.51 0-107.021 0-160.531 0-16.281 60.803-16.282 125.821 0 186.625zM405.219 541.313c71.188 0 142.375 0 213.562 0 6.053-62.017 6.053-124.608 0-186.625-71.187 0-142.375 0-213.562 0-6.054 62.027-6.051 124.597 0 186.625zM699.25 541.313c53.521 0 107.042 0 160.562 0 16.248-60.794 16.246-125.831 0-186.625-53.521 0-107.042 0-160.562 0 5.438 62.059 5.439 124.566 0 186.625zM196.219 274.719c46.26 0 92.521 0 138.781 0 10.028-56.309 24.384-112.558 50.281-163.844-79.957 29.71-148.241 88.96-189.062 163.844zM416.5 274.719c63.667 0 127.333 0 191 0-13.489-62.749-29.017-130.627-75.624-177.715-42.987-28.781-69.754 38.951-84.684 70.284-14.328 34.477-23.577 70.852-30.691 107.431zM689 274.719c46.271 0 92.542 0 138.812 0-40.793-74.857-109.168-134.159-189.094-163.844 25.894 51.262 40.257 107.564 50.281 163.844zM139.017 581.333h745.966z" />
<glyph unicode="&#xe925;" glyph-name="write" d="M631.281 881.094c-42.981-0.116-85.932-16.528-118.375-49.219-131.814-132.175-263.738-264.241-395.625-396.344-21.81-21.847-34.303-51.323-34.844-82.188l-2.094-119.969c-0.694-39.596 32.529-72.822 72.125-72.125l119.625 2.094c30.884 0.544 60.364 13.109 82.188 34.969 131.886 132.231 263.883 264.195 395.719 396.406 65.203 65.363 65.19 172.373-0.031 237.719l-0.031 0.062-0.031 0.031c-32.619 32.515-75.644 48.679-118.625 48.563zM631.5 801.625c22.275 0.060 44.568-8.512 61.844-25.687 34.721-34.788 34.743-89.921 0.031-124.719l-32.813-32.906-123.875 124.125 33 33.094c17.194 17.325 39.501 26.033 61.812 26.094zM480.156 685.812l123.875-124.125-306.344-306.875c-7.18-7.192-16.839-11.29-27-11.469l-110.219-1.937 1.969 110.531c0.179 10.187 4.27 19.883 11.469 27.094l306.25 306.781zM111.719 94.875c-22.091 0-40-17.909-40-40s17.909-40 40-40h800.562c22.091 0 40 17.909 40 40s-17.909 40-40 40h-800.562z" />
<glyph unicode="&#xe926;" glyph-name="apps" d="M192 888c-66.48 0-120-53.52-120-120s53.52-120 120-120c66.48 0 120 53.52 120 120s-53.52 120-120 120zM512 888c-66.48 0-120-53.52-120-120s53.52-120 120-120c66.48 0 120 53.52 120 120s-53.52 120-120 120zM832 888c-66.48 0-120-53.52-120-120s53.52-120 120-120c66.48 0 120 53.52 120 120s-53.52 120-120 120zM192 568c-66.48 0-120-53.52-120-120s53.52-120 120-120c66.48 0 120 53.52 120 120s-53.52 120-120 120zM512 568c-66.48 0-120-53.52-120-120s53.52-120 120-120c66.48 0 120 53.52 120 120s-53.52 120-120 120zM832 568c-66.48 0-120-53.52-120-120s53.52-120 120-120c66.48 0 120 53.52 120 120s-53.52 120-120 120zM192 248c-66.48 0-120-53.52-120-120s53.52-120 120-120c66.48 0 120 53.52 120 120s-53.52 120-120 120zM512 248c-66.48 0-120-53.52-120-120s53.52-120 120-120c66.48 0 120 53.52 120 120s-53.52 120-120 120zM832 248c-66.48 0-120-53.52-120-120s53.52-120 120-120c66.48 0 120 53.52 120 120s-53.52 120-120 120z" />
<glyph unicode="&#xe927;" glyph-name="arrow" d="M511.875 888.188c-0.009 0-0.020 0-0.031 0-22.091 0-40-17.909-40-40 0-0.011 0-0.022 0-0.033v0.002-736.125l-312.5 317.312c-7.206 7.301-17.191 11.842-28.238 11.906h-0.012c-0.101 0.001-0.22 0.001-0.339 0.001-10.907 0-20.795-4.366-28.011-11.445l0.006 0.006c-7.387-7.262-11.965-17.362-11.965-28.531 0-10.936 4.389-20.847 11.501-28.068l-0.005 0.005 324.937-330c46.184-46.893 123.066-46.893 169.25 0l324.906 330c7.144 7.222 11.557 17.158 11.557 28.125 0 11.138-4.552 21.212-11.897 28.464l-0.004 0.004c-7.216 7.107-17.127 11.496-28.063 11.496-11.169 0-21.269-4.578-28.526-11.959l-0.006-0.006-312.625-317.437v736.25c0 0.009 0 0.020 0 0.031 0 22.069-17.873 39.964-39.934 40h-0.003z" />
<glyph unicode="&#xe928;" glyph-name="asterisk" d="M512 887.938c-0.009 0-0.020 0-0.031 0-22.058 0-39.947-17.855-40-39.901v-330.724l-286.406 165.375c-5.74 3.373-12.643 5.366-20.012 5.366-3.686 0-7.255-0.498-10.644-1.432l0.281 0.066c-10.414-2.881-18.928-9.584-24.116-18.467l-0.102-0.19c-3.379-5.744-5.375-12.653-5.375-20.028 0-14.74 7.973-27.619 19.842-34.557l0.189-0.102 286.375-165.344-286.375-165.375c-12.058-7.041-20.032-19.919-20.032-34.659 0-7.375 1.996-14.284 5.477-20.216l-0.102 0.188c7.049-12.022 19.908-19.968 34.622-19.968 7.352 0 14.241 1.984 20.161 5.445l-0.189-0.102 286.406 165.375v-330.75c0.053-22.051 17.942-39.906 40-39.906 0.011 0 0.022 0 0.033 0h-0.002c0.019 0 0.041 0 0.063 0 22.058 0 39.947 17.855 40 39.901v330.755l286.406-165.375c5.725-3.351 12.605-5.329 19.948-5.329 14.709 0 27.564 7.939 34.512 19.766l0.102 0.188c3.379 5.744 5.375 12.653 5.375 20.028 0 14.74-7.973 27.619-19.842 34.557l-0.189 0.102-286.375 165.375 286.375 165.344c12.058 7.041 20.032 19.919 20.032 34.659 0 7.375-1.996 14.284-5.477 20.216l0.102-0.188c-5.291 9.072-13.805 15.775-23.938 18.59l-0.281 0.067c-3.102 0.864-6.664 1.36-10.342 1.36-7.365 0-14.264-1.99-20.191-5.462l0.189 0.102-286.406-165.375v330.719c-0.053 22.051-17.942 39.906-40 39.906-0.022 0-0.044 0-0.066 0h0.003z" />
<glyph unicode="&#xe929;" glyph-name="bell" d="M512 881.406c-191.544 0.003-347.75-155.721-347.75-346.937-0.008-0.469-0.008-0.938 0-1.406 0.016-0.474-0.019-0.957 0-1.437v-256.219c0.013-1.263 0.086-2.525 0.219-3.781 3.333-34.872-21.503-64.946-56.375-68.281-51.427-4.211-47.718-80.662 3.875-79.875l256.812 0.094c17.605-62.578 75.329-108.968 143.219-108.969 67.89 0.001 125.645 46.392 143.25 108.969l256.781-0.094c51.622-0.838 55.364 75.672 3.906 79.875-34.859 3.343-59.747 33.422-56.406 68.281 0.142 1.256 0.226 2.518 0.25 3.781v259.063c0 191.217-156.237 346.94-347.781 346.937zM512 801.438c148.417 0.002 267.781-119.102 267.781-266.969v-257.375c-1.854-27.35 11.471-50.517 23.5-73.531-194.177 0-388.354 0-582.531 0 12.036 23.015 25.317 46.177 23.469 73.531v256.126c0 0.032 0 0.062 0 0.094 0 0.053 0 0.104 0 0.157 0 0.032 0 0.062 0 0.094s0 0.062 0 0.094c0 0.053 0 0.104 0 0.157 0 0.032 0 0.062 0 0.094 0 0.053 0 0.104 0 0.157 0 0.032 0 0.062 0 0.094 0 0.053 0 0.104 0 0.157 0 0.032 0 0.062 0 0.094v0.312c0.13 147.748 119.445 266.714 267.781 266.712zM564.375 123.563c-12.465-16.655-29.662-29-52.375-29-22.716 0-40.035 12.341-52.5 29 34.958 0.046 69.917 0.021 104.875 0z" />
<glyph unicode="&#xe92a;" glyph-name="bin" d="M492.75 887.955c-83.473 0-152-68.527-152-152v-9.313c-76.339 0.127-152.555-0.097-228.781-0.097-22.030-0.035-39.886-17.876-39.938-39.906-0.017-22.079 17.858-39.997 39.938-40.031h58.187c15.582-163.646 31.281-327.299 46.937-490.938 7.98-83.397 78.722-147.625 162.5-147.625h264.813c83.778 0 154.552 64.228 162.531 147.625l46.906 490.938h58.187c22.079 0.035 39.955 17.952 39.938 40.031-0.051 22.030-17.907 39.872-39.938 39.906-76.217 0.079-152.425 0.097-228.75 0.097v9.313c0 83.473-68.558 152-152.031 152zM492.75 808.017h38.5c40.238 0 71.937-31.824 71.937-72.062v-9.313h-182.375v9.313c0 40.238 31.699 72.062 71.938 72.062zM250.5 646.548h522.875l-46.156-483.187c-4.119-43.046-39.569-75.344-82.813-75.344h-264.813c-43.243 0-78.787 32.297-82.906 75.344zM427.875 552.767c-22.104 0.018-40.031-17.896-40.031-40v-290.938c0.018-22.091 17.94-39.986 40.031-39.969 22.067 0.018 39.951 17.902 39.969 39.969v290.938c0 22.079-17.89 39.983-39.969 40zM596.188 552.767c-22.104 0.018-40.031-17.896-40.031-40v-290.938c0.018-22.091 17.94-39.986 40.031-39.969 22.067 0.018 39.951 17.902 39.969 39.969v290.938c0 22.079-17.89 39.983-39.969 40z" />
<glyph unicode="&#xe92b;" glyph-name="bot" d="M512 891.406c-44.183 0-80-35.817-80-80v0c0.088-29.353 15.971-54.976 39.592-68.827l0.377-0.204v-36.844c-55.972-1.568-109.431-8.064-155.656-33.844-40.131-22.381-69.912-61.395-84.125-114.812-40.986-10.613-68.855-41.103-69.125-75.625 0.274-34.529 28.158-65.021 69.156-75.625 14.22-53.415 43.981-92.472 84.094-114.844 57.157-31.877 125.301-34.25 195.687-34.25s138.437 2.373 195.594 34.25c39.989 22.302 69.756 61.182 84.062 114.344 41.266 10.626 69.259 41.385 69.281 76.125-0.035 34.722-28.010 65.462-69.25 76.094-14.296 53.178-44.079 92.027-84.094 114.344-46.216 25.775-99.595 32.274-155.531 33.844v36.844c23.986 14.062 39.856 39.684 39.937 69.020v0.012c0 44.183-35.817 80-80 80v0zM512 625.969c67.209 0 123.737-5.682 156.75-24.094 19.906-11.102 34.816-25.33 43.562-51.344 5.759-17.129 8.875-39.302 8.875-69.219 0-29.977-3.156-52.201-8.937-69.344-8.751-25.947-23.62-40.163-43.5-51.25-33.014-18.412-89.541-24.219-156.75-24.219s-123.705 5.807-156.719 24.219c-19.783 11.033-34.637 25.168-43.406 50.875-5.864 17.192-9.031 39.521-9.031 69.719 0 30.143 3.156 52.414 9 69.594 8.764 25.767 23.63 39.922 43.437 50.969 33.013 18.412 89.51 24.094 156.719 24.094zM427.781 551.469c-22.043-0.036-39.902-17.895-39.937-39.934v-60.597c0.053-22.029 17.906-39.871 39.934-39.906h0.003c0.009 0 0.020 0 0.031 0 22.058 0 39.947 17.855 40 39.901v60.599c-0.036 22.065-17.931 39.938-40 39.938-0.011 0-0.022 0-0.033 0h0.002zM596.188 551.469c-0.009 0-0.020 0-0.031 0-22.069 0-39.964-17.873-40-39.934v-60.597c0.053-22.051 17.942-39.906 40-39.906 0.011 0 0.022 0 0.033 0h-0.002c0.009 0 0.020 0 0.031 0 22.058 0 39.947 17.855 40 39.901v60.599c-0.036 22.065-17.931 39.938-40 39.938-0.011 0-0.022 0-0.033 0h0.002zM512 193.688c-163.070-0.003-317.104-39.398-422.812-112.906-10.439-7.32-17.179-19.298-17.179-32.851 0-8.519 2.663-16.415 7.202-22.903l-0.086 0.129c7.318-10.46 19.308-17.216 32.877-17.216 8.561 0 16.494 2.69 23 7.27l-0.127-0.085c86.126 59.892 227.361 98.622 377.125 98.625 149.774 0.002 290.992-38.729 377.125-98.625 6.379-4.496 14.312-7.185 22.873-7.185 13.569 0 25.559 6.756 32.791 17.087l0.085 0.129c4.46 6.362 7.127 14.264 7.127 22.789 0 13.543-6.731 25.515-17.030 32.751l-0.128 0.085c-105.715 73.513-259.763 112.908-422.844 112.906z" />
<glyph unicode="&#xe92c;" glyph-name="calc" d="M261.719 887.938c-22.018-0.053-39.853-17.888-39.906-39.901v-146.942h-147.156c-0.019 0-0.040 0-0.062 0-22.091 0-40-17.909-40-40 0-0.011 0-0.022 0-0.033v0.002c0.053-22.051 17.942-39.906 40-39.906 0.022 0 0.044 0 0.066 0h147.153v-146.937c0-0.009 0-0.020 0-0.031 0-22.058 17.855-39.947 39.901-40h0.005c0.019 0 0.040 0 0.062 0 22.091 0 40 17.909 40 40 0 0.011 0 0.022 0 0.033v-0.002 146.937h147.156c22.018 0.053 39.853 17.888 39.906 39.901v0.005c0 0.009 0 0.020 0 0.031 0 22.058-17.855 39.947-39.901 40h-147.161v146.937c-0.053 22.051-17.942 39.906-40 39.906-0.022 0-0.044 0-0.066 0h0.003zM771.156 831.156c0 0-0.001 0-0.002 0-26.871 0-48.655-21.758-48.655-48.598 0-0.009 0-0.019 0-0.028v0.001c0.003-26.838 21.785-48.594 48.655-48.594 0.001 0 0.001 0 0.002 0v0c0 0 0.001 0 0.002 0 26.87 0 48.652 21.756 48.655 48.593v0c0 0.008 0 0.017 0 0.027 0 26.84-21.783 48.598-48.655 48.598-0.001 0-0.001 0-0.002 0v0zM592.906 701.094c-0.009 0-0.020 0-0.031 0-22.091 0-40-17.909-40-40 0-0.011 0-0.022 0-0.033v0.002c0.053-22.051 17.942-39.906 40-39.906 0.011 0 0.022 0 0.033 0h356.467c0.009 0 0.020 0 0.031 0 22.058 0 39.947 17.855 40 39.901v0.005c0 0.009 0 0.020 0 0.031 0 22.091-17.909 40-40 40-0.011 0-0.022 0-0.033 0h-356.467zM771.156 588.219c0 0-0.001 0-0.002 0-26.87 0-48.652-21.756-48.655-48.593v0c0.003-26.838 21.785-48.594 48.655-48.594 0.001 0 0.001 0 0.002 0v0c0 0 0.001 0 0.002 0 26.87 0 48.652 21.756 48.655 48.593v0c-0.003 26.838-21.785 48.594-48.655 48.594-0.001 0-0.001 0-0.002 0v0zM93.313 424.5c-11.035-0.046-21.008-4.554-28.217-11.81l-0.002-0.002c-7.246-7.24-11.728-17.245-11.728-28.297s4.482-21.057 11.728-28.297l140.063-139.844-140.062-139.938c-7.246-7.24-11.728-17.245-11.728-28.297s4.482-21.057 11.728-28.297v0c7.238-7.237 17.237-11.713 28.281-11.713s21.043 4.476 28.281 11.713l140.062 139.969 140.219-139.969c7.238-7.237 17.237-11.713 28.281-11.713s21.043 4.476 28.281 11.713v0c7.246 7.24 11.728 17.245 11.728 28.297s-4.482 21.057-11.728 28.297l-140.063 139.938 140.062 139.844c7.246 7.24 11.728 17.245 11.728 28.297s-4.482 21.057-11.728 28.297v0c-7.243 7.265-17.261 11.76-28.328 11.76-11.021 0-21.001-4.457-28.235-11.667l0.001 0.001-140.219-139.938-140.062 139.938c-7.239 7.24-17.24 11.719-28.287 11.719-0.020 0-0.040 0-0.059 0h0.003zM592.906 357.406c-0.009 0-0.020 0-0.031 0-22.091 0-40-17.909-40-40 0-0.011 0-0.022 0-0.033v0.002c0.036-22.064 17.931-39.937 40-39.937 0.011 0 0.022 0 0.033 0h356.467c0.009 0 0.020 0 0.031 0 22.069 0 39.964 17.873 40 39.934v0.003c0 0.009 0 0.020 0 0.031 0 22.091-17.909 40-40 40-0.011 0-0.022 0-0.033 0h-356.467zM592.906 155.094c-0.009 0-0.020 0-0.031 0-22.091 0-40-17.909-40-40 0-0.022 0-0.044 0-0.066v0.003c0-0.009 0-0.020 0-0.031 0-22.091 17.909-40 40-40 0.011 0 0.022 0 0.033 0h356.467c0.009 0 0.020 0 0.031 0 22.091 0 40 17.909 40 40 0 0.011 0 0.022 0 0.033v-0.002c0 0.019 0 0.040 0 0.062 0 22.091-17.909 40-40 40-0.011 0-0.022 0-0.033 0h-356.467z" />
<glyph unicode="&#xe92d;" glyph-name="chat" d="M192.047 887.717c-65.8 0-120-54.2-120-120v-480c0-65.8 54.2-120 120-120h53.15l0.591-89.055c0.376-56.816 70.555-91.164 115.63-56.575l190.039 145.63h280.512c65.8 0 120 54.2 120 120v480c0 65.8-54.2 120-120 120zM192.047 807.756h639.921c22.565 0 40.039-17.474 40.039-40.039v-480c0-22.565-17.474-39.921-40.039-39.921h-307.677l-198.543-152.244-1.063 152.244h-132.638c-22.565 0-40.039 17.356-40.039 39.921v480c0 22.565 17.474 40.039 40.039 40.039z" />
<glyph unicode="&#xe92e;" glyph-name="chat_bubble" d="M512 887.938c-242.531 0-439.938-197.407-439.937-439.937 0-0.037 0-0.081 0-0.125s0-0.088 0-0.132v0.007c0.347-66.793 20.74-130.894 50.187-190.625l-49.125-199.594c-0.735-2.869-1.158-6.162-1.158-9.554 0-22.094 17.91-40.004 40.004-40.004 3.519 0 6.931 0.454 10.182 1.307l-0.279-0.062 197.031 50.313c60.32-30.154 125.232-51.157 192.875-51.5 0.032 0 0.071 0 0.109 0s0.077 0 0.115 0h-0.006c242.531 0 439.969 197.438 439.969 439.969s-197.438 439.938-439.969 439.937zM512 808c199.295 0 360-160.705 360-360 0-199.215-160.567-359.87-359.75-360-61.717 0.314-122.335 16.517-176 47-5.656 3.25-12.436 5.166-19.664 5.166-3.54 0-6.972-0.46-10.24-1.323l0.279 0.063-139.844-35.687 34.844 142.219c0.738 2.874 1.162 6.174 1.162 9.573 0 7.157-1.88 13.876-5.172 19.688l0.104-0.199c-29.643 53.049-45.364 112.737-45.719 173.5v0.125c0 0.039 0 0.055 0 0.094 0.13 199.183 160.785 359.781 360 359.781zM540 628.25c-6.325-0.167-12.238-1.777-17.471-4.511l0.221 0.105c-13.042-6.769-21.798-20.171-21.798-35.619 0-6.604 1.6-12.834 4.434-18.324l-0.105 0.224 94.25-184.969c6.773-13.029 20.169-21.774 35.607-21.774 6.658 0 12.936 1.627 18.458 4.504l-0.221-0.105c13.063 6.763 21.836 20.176 21.836 35.638 0 6.609-1.603 12.843-4.441 18.336l0.105-0.223-94.25 184.969c-6.775 13.022-20.167 21.763-35.601 21.763-0.36 0-0.719-0.005-1.077-0.014l0.053 0.001zM374.594 551.781c-5.564-0.437-10.685-1.947-15.286-4.324l0.223 0.105c-13.036-6.771-21.787-20.17-21.787-35.613 0-6.668 1.631-12.955 4.517-18.483l-0.105 0.221 94.25-184.844c6.767-13.049 20.173-21.811 35.625-21.811 6.614 0 12.852 1.605 18.348 4.447l-0.223-0.105c13.049 6.767 21.811 20.173 21.811 35.625 0 6.614-1.605 12.852-4.447 18.348l0.105-0.223-94.25 184.969c-4.867 9.362-13.055 16.433-22.968 19.731l-0.282 0.081c-3.722 1.263-8.010 1.993-12.467 1.993-1.078 0-2.147-0.043-3.204-0.126l0.14 0.009z" />
<glyph unicode="&#xe92f;" glyph-name="chat_bubble_slash" d="M111.969 887.938c-11.018-0.011-20.992-4.474-28.219-11.688l0.001 0.001c-7.237-7.238-11.713-17.237-11.713-28.281s4.476-21.043 11.713-28.281l799.937-799.969c7.24-7.246 17.245-11.728 28.297-11.728s21.057 4.482 28.297 11.728v0c7.246 7.24 11.728 17.245 11.728 28.297s-4.482 21.057-11.728 28.297l-90.469 90.438c63.675 76.321 102.156 174.35 102.156 281.25 0 242.531-197.438 439.938-439.969 439.937-106.895 0-204.905-38.483-281.219-102.156l-90.469 90.469c-7.236 7.222-17.224 11.688-28.256 11.688-0.031 0-0.062 0-0.092 0h0.005zM512 808c199.295 0 360-160.705 360-360 0-85.187-29.362-163.307-78.563-224.844l-506.25 506.219c61.528 49.218 139.613 78.625 224.812 78.625zM128.781 663.688c-36.056-63.789-56.719-137.357-56.719-215.687 0-0.037 0-0.081 0-0.125s0-0.088 0-0.132v0.007c0.347-66.793 20.74-130.894 50.187-190.625l-49.125-199.594c-0.735-2.869-1.158-6.162-1.158-9.554 0-22.094 17.91-40.004 40.004-40.004 3.519 0 6.931 0.454 10.182 1.307l-0.279-0.062 197.031 50.313c60.319-30.154 125.232-51.157 192.875-51.5 0.032 0 0.071 0 0.109 0s0.077 0 0.115 0h-0.006c78.327 0 151.9 20.697 215.687 56.75l-58.875 58.875c-47.295-22.833-100.392-35.62-156.562-35.656-61.717 0.314-122.335 16.517-176 47-5.656 3.25-12.436 5.166-19.664 5.166-3.54 0-6.972-0.46-10.24-1.323l0.279 0.063-139.844-35.687 34.844 142.219c0.738 2.874 1.162 6.174 1.162 9.573 0 7.157-1.88 13.876-5.172 19.688l0.104-0.199c-29.643 53.049-45.364 112.737-45.719 173.5v0.125c0 0.039 0 0.055 0 0.094 0.037 56.17 12.855 109.268 35.687 156.562l-58.906 58.906z" />
<glyph unicode="&#xe930;" glyph-name="check" d="M910.276 734.764c-10.418-0.463-19.732-4.843-26.574-11.693l-465.473-465.709c-22.193-22.201-56.94-22.201-79.134 0l-198.78 198.898c-7.239 7.24-17.24 11.719-28.287 11.719s-21.049-4.478-28.287-11.719v0c-7.24-7.239-11.719-17.24-11.719-28.287s4.478-21.049 11.719-28.287l198.78-198.898c52.767-52.785 139.516-52.785 192.283 0l465.472 465.709c7.24 7.239 11.719 17.24 11.719 28.287s-4.478 21.049-11.719 28.287v0c-7.24 7.247-17.245 11.729-28.298 11.729-0.599 0-1.194-0.013-1.787-0.039l0.084 0.003z" />
<glyph unicode="&#xe931;" glyph-name="checkbox" d="M192.063 887.938c-65.8 0-120-54.2-120-120v-639.906c0-65.8 54.2-120 120-120h639.906c65.8 0 120 54.2 120 120v639.906c0 65.8-54.2 120-120 120h-639.906zM192.063 808h639.906c22.565 0 40.031-17.497 40.031-40.062v-639.906c0-22.565-17.466-40.031-40.031-40.031h-639.906c-22.565 0-40.062 17.466-40.062 40.031v639.906c0 22.565 17.497 40.062 40.062 40.062zM749.281 622.313c-9.779-0.684-18.487-4.786-25.044-11.106l0.012 0.012-273.906-263.375c-10.578-10.173-26.141-10.173-36.719 0l-113.875 109.594c-7.174 6.889-16.936 11.131-27.688 11.131-11.343 0-21.582-4.721-28.862-12.305l-0.013-0.014c-6.925-7.181-11.191-16.968-11.191-27.75 0-11.311 4.695-21.525 12.242-28.801l0.012-0.012 113.875-109.5c40.945-39.38 106.805-39.38 147.75 0l273.875 263.406c7.559 7.287 12.254 17.502 12.254 28.812 0 10.783-4.266 20.569-11.203 27.762l0.012-0.012c-7.287 7.556-17.499 12.249-28.808 12.249-0.958 0-1.909-0.034-2.85-0.1l0.127 0.007z" />
<glyph unicode="&#xe932;" glyph-name="checkbox_indeterminate" d="M192.063 887.938c-65.8 0-120-54.2-120-120v-639.906c0-65.8 54.2-120 120-120h639.906c65.8 0 120 54.2 120 120v639.906c0 65.8-54.2 120-120 120h-639.906zM192.063 808h639.906c22.565 0 40.031-17.497 40.031-40.062v-639.906c0-22.565-17.466-40.031-40.031-40.031h-639.906c-22.565 0-40.062 17.466-40.062 40.031v639.906c0 22.565 17.497 40.062 40.062 40.062zM272 495.938c-26.461-0.036-47.902-21.477-47.937-47.934v-0.003c0.018-26.474 21.466-47.933 47.934-47.969h480.003c26.485 0.018 47.951 21.483 47.969 47.967v0.002c-0.036 26.472-21.494 47.92-47.967 47.938h-480.002z" />
<glyph unicode="&#xe933;" glyph-name="circle" d="M512.008 887.953c-242.531 0-439.961-197.429-439.961-439.961s197.429-439.961 439.961-439.961c242.531 0 439.961 197.429 439.961 439.961s-197.429 439.961-439.961 439.961zM512.008 807.992c199.296 0 360-160.704 360-360s-160.704-360-360-360c-199.296 0-360 160.704-360 360s160.704 360 360 360z" />
<glyph unicode="&#xe934;" glyph-name="circles" d="M273.063 888c-107.234 0-194.812-87.579-194.812-194.812s87.578-194.812 194.812-194.812h5.688c107.234 0 194.812 87.579 194.812 194.812s-87.578 194.812-194.812 194.812zM757.188 881.75c-107.234 0-194.812-87.579-194.813-194.812s87.578-194.812 194.813-194.812h5.719c107.234 0 194.812 87.579 194.812 194.812s-87.578 194.812-194.812 194.812zM273.063 808h5.688c64.291 0 114.812-50.522 114.812-114.812s-50.521-114.812-114.812-114.812h-5.688c-64.291 0-114.812 50.522-114.812 114.812s50.521 114.812 114.812 114.812zM757.188 801.75h5.719c64.291 0 114.812-50.522 114.812-114.812s-50.521-114.813-114.812-114.812h-5.719c-64.291 0-114.813 50.522-114.813 114.812s50.521 114.812 114.813 114.812zM261.094 403.875c-107.234 0-194.812-87.579-194.812-194.813s87.578-194.812 194.812-194.812h5.719c107.234 0 194.812 87.579 194.812 194.812s-87.578 194.813-194.812 194.813zM745.219 397.625c-107.234 0-194.781-87.588-194.781-194.813s87.547-194.812 194.781-194.812h5.719c107.234 0 194.812 87.579 194.812 194.812s-87.578 194.812-194.812 194.813zM261.094 323.875h5.719c64.291 0 114.812-50.522 114.812-114.813s-50.521-114.812-114.812-114.812h-5.719c-64.291 0-114.812 50.522-114.812 114.812s50.521 114.812 114.812 114.813zM745.219 317.625h5.719c64.291 0 114.812-50.522 114.812-114.813s-50.521-114.812-114.812-114.812h-5.719c-64.291 0-114.781 50.512-114.781 114.812s50.49 114.813 114.781 114.813z" />
<glyph unicode="&#xe935;" glyph-name="clear_input" d="M263.625 833.75c-14.982-0.024-28.029-8.28-34.865-20.485l-0.104-0.202-191.687-345.687c-3.149-5.586-5.005-12.264-5.005-19.375s1.856-13.789 5.109-19.576l-0.104 0.201 191.687-345.719c6.947-12.395 19.993-20.639 34.966-20.656h688.346c0.008 0 0.018 0 0.027 0 22.094 0 40.004 17.91 40.004 40.004 0 0.010 0 0.019 0 0.029v-0.001 691.406c0 0.017 0 0.038 0 0.058 0 22.094-17.91 40.004-40.004 40.004-0.010 0-0.019 0-0.029 0h-688.342zM287.25 753.656h624.813v-611.344h-624.813l-169.5 305.687 169.5 305.656zM406.406 664.375c-11.018-0.011-20.992-4.474-28.219-11.688l0.001 0.001c-7.283-7.246-11.791-17.276-11.791-28.359 0-11.021 4.457-21.001 11.667-28.236l-0.001 0.001 147.75-148.094-147.75-148.125c-7.2-7.232-11.65-17.206-11.65-28.219 0-11.075 4.501-21.099 11.774-28.342l0.001-0.001c7.238-7.237 17.237-11.713 28.281-11.713s21.043 4.476 28.281 11.713v0l147.656 148 147.625-148c7.24-7.246 17.245-11.728 28.297-11.728s21.057 4.482 28.297 11.728v0c7.274 7.244 11.775 17.268 11.775 28.344 0 11.013-4.451 20.987-11.652 28.22l0.001-0.001-147.781 148.125 147.781 148.094c7.209 7.234 11.666 17.213 11.666 28.234 0 11.083-4.507 21.113-11.789 28.358l-0.002 0.002c-7.24 7.246-17.245 11.728-28.297 11.728s-21.057-4.482-28.297-11.728v0l-147.625-148-147.656 148c-7.236 7.222-17.224 11.688-28.256 11.688-0.031 0-0.062 0-0.092 0h0.005z" />
<glyph unicode="&#xe936;" glyph-name="clock" d="M512 887.938c-242.531 0-439.937-197.406-439.937-439.937s197.406-439.969 439.937-439.969c242.531 0 439.969 197.437 439.969 439.969s-197.437 439.937-439.969 439.937zM512 808c199.296 0 360-160.704 360-360s-160.704-360-360-360c-199.296 0-360 160.704-360 360s160.704 360 360 360zM512 761.219c-0.009 0-0.019 0-0.029 0-22.093 0-40.003-17.91-40.003-40.003 0-0.010 0-0.020 0-0.030v0.002-273.187c0.005-11.44 4.811-21.757 12.513-29.045l0.019-0.017 147.156-143.75c7.201-7.024 17.055-11.357 27.922-11.357 11.224 0 21.368 4.622 28.633 12.067l0.008 0.008c7.033 7.203 11.372 17.063 11.372 27.937 0 11.216-4.616 21.354-12.052 28.618l-0.008 0.008-135.469 132.312v256.406c0 0.009 0 0.019 0 0.029 0 22.093-17.91 40.003-40.003 40.003-0.021 0-0.042 0-0.063 0h0.003zM512 448l147.632-144.13zM512 448v273.171z" />
<glyph unicode="&#xe937;" glyph-name="compass" d="M512 887.938c-242.533 0-439.937-197.405-439.937-439.937s197.405-439.969 439.937-439.969c242.533 0 439.969 197.436 439.969 439.969s-197.436 439.937-439.969 439.937zM512 808c199.295 0 360-160.705 360-360s-160.705-360-360-360c-199.295 0-360 160.705-360 360s160.705 360 360 360zM737.344 683.906c-5.878 1.287-13.226 0.089-21.406-3.188l-263.719-105.656c-12.293-4.924-26.466-14.539-39.604-27.677s-22.753-27.311-27.677-39.604l-105.656-263.719c-4.922-12.289-5.157-22.699 0.463-28.318s16.030-5.385 28.319-0.463l263.719 105.656c12.293 4.924 26.466 14.539 39.604 27.677s22.753 27.311 27.677 39.604l105.656 263.719c4.921 12.288 5.156 22.697-0.464 28.316-1.879 1.879-4.292 3.103-7.133 3.717l0.222-0.064zM629.406 565.406l-67.156-167.656-167.687-67.188 67.188 167.687 167.656 67.156z" />
<glyph unicode="&#xe938;" glyph-name="config" d="M511.938 959.999c-28.585 0-57.177-7.408-82.75-22.156l-300.5-173.312c-51.146-29.497-82.75-84.163-82.75-143.156v-346.625c0-58.993 31.604-113.785 82.75-143.281l300.5-173.344c51.146-29.497 114.323-29.497 165.469 0l300.656 173.344c51.146 29.497 82.75 84.288 82.75 143.281v346.625c0 58.993-31.604 113.66-82.75 143.156l-300.656 173.312c-25.573 14.748-54.134 22.156-82.719 22.156zM512 880.124c14.732 0 29.443-3.799 42.688-11.438l300.531-173.469c26.49-15.277 42.781-43.289 42.781-73.844v-346.625c0-30.554-16.291-58.723-42.781-74l-300.531-173.312c-26.49-15.277-58.916-15.277-85.406 0l-300.625 173.312c-26.49 15.277-42.656 43.446-42.656 74v346.625c0 30.554 16.166 58.567 42.656 73.844l300.625 173.469c13.245 7.639 27.986 11.438 42.719 11.438zM511.906 647.686c-109.883 0-199.844-89.887-199.844-199.719s89.96-199.594 199.844-199.594c109.883 0 199.969 89.762 199.969 199.594s-90.085 199.719-199.969 199.719zM511.906 567.749c66.696 0 119.875-53.238 119.875-119.781s-53.179-119.625-119.875-119.625c-66.696 0-119.75 53.081-119.75 119.625s53.054 119.781 119.75 119.781z" />
<glyph unicode="&#xe939;" glyph-name="cross" d="M150.354 847.913c-10.447-0.398-19.808-4.743-26.695-11.577l0.003 0.003c-7.24-7.239-11.719-17.24-11.719-28.287s4.478-21.049 11.719-28.287l331.772-331.654-331.772-331.772c-7.24-7.239-11.719-17.24-11.719-28.287s4.478-21.049 11.719-28.287v0c7.239-7.24 17.24-11.719 28.287-11.719s21.049 4.478 28.287 11.719l331.654 331.654 331.772-331.654c7.239-7.24 17.24-11.719 28.287-11.719s21.049 4.478 28.287 11.719v0c7.24 7.239 11.719 17.24 11.719 28.287s-4.478 21.049-11.719 28.287l-331.654 331.772 331.654 331.654c7.24 7.239 11.719 17.24 11.719 28.287s-4.478 21.049-11.719 28.287v0c-7.239 7.24-17.24 11.719-28.287 11.719s-21.049-4.478-28.287-11.719l-331.772-331.772-331.654 331.772c-7.228 7.176-17.186 11.611-28.179 11.611-0.599 0-1.195-0.013-1.787-0.039l0.084 0.003z" />
<glyph unicode="&#xe93a;" glyph-name="dice" d="M200.875 888.031c-70.711 0-128.875-58.166-128.875-128.875v-622.281c0-70.709 58.164-128.875 128.875-128.875h622.187c70.711 0 128.875 58.166 128.875 128.875v622.281c0 70.709-58.164 128.875-128.875 128.875h-622.187zM200.875 808h622.187c27.475 0 48.938-21.369 48.938-48.844v-622.281c0-27.474-21.462-48.844-48.938-48.844h-622.187c-27.475 0-48.813 21.369-48.813 48.844v622.281c0 27.474 21.338 48.844 48.813 48.844zM341.406 708c-49.377-0.002-89.405-40.029-89.406-89.406v0c0.002-49.377 40.029-89.405 89.406-89.406v0c0.008 0 0.018 0 0.028 0 49.378 0 89.407 40.028 89.409 89.406v0c-0.002 49.378-40.031 89.406-89.409 89.406-0.010 0-0.020 0-0.030 0h0.002zM682.594 708c-0.008 0-0.018 0-0.028 0-49.378 0-89.408-40.028-89.409-89.406v0c0.002-49.378 40.031-89.406 89.409-89.406 0.010 0 0.020 0 0.030 0h-0.002c49.377 0.002 89.405 40.029 89.406 89.406v0c-0.002 49.377-40.029 89.405-89.406 89.406v0zM512 537.406c-49.377-0.002-89.405-40.029-89.406-89.406v0c0.002-49.377 40.029-89.405 89.406-89.406v0c49.377 0.002 89.405 40.029 89.406 89.406v0c-0.002 49.377-40.029 89.405-89.406 89.406v0zM341.406 366.813c-49.377-0.002-89.405-40.029-89.406-89.406v0c0.002-49.377 40.029-89.405 89.406-89.406v0c0.008 0 0.018 0 0.028 0 49.378 0 89.407 40.028 89.409 89.406v0c-0.002 49.378-40.031 89.406-89.409 89.406-0.010 0-0.020 0-0.030 0h0.001zM682.594 366.813c-0.008 0-0.018 0-0.028 0-49.378 0-89.408-40.028-89.409-89.406v0c0.002-49.378 40.031-89.406 89.409-89.406 0.010 0 0.020 0 0.030 0h-0.002c49.377 0.002 89.405 40.029 89.406 89.406v0c-0.002 49.377-40.029 89.405-89.406 89.406v0z" />
<glyph unicode="&#xe93b;" glyph-name="disable" d="M512.008 887.953c-112.755 0-225.541-42.825-311.339-128.622-171.595-171.595-171.595-451.082 0-622.677s451.082-171.595 622.677 0c171.595 171.595 171.595 451.082 0 622.677-85.797 85.797-198.584 128.622-311.339 128.622zM512.008 808.465c78.986 0 155.382-31.303 220.748-83.15l-498.071-498.071c-112.31 141.594-108.414 344.538 22.559 475.512 70.51 70.51 162.652 105.709 254.764 105.709zM789.331 668.74c112.31-141.594 108.414-344.538-22.559-475.512s-333.918-134.869-475.512-22.559l498.071 498.071z" />
<glyph unicode="&#xe93c;" glyph-name="dropdown" d="M111.142 672.756c-10.431-0.23-19.84-4.418-26.825-11.116l0.014 0.013c-7.6-7.293-12.322-17.534-12.322-28.878 0-10.757 4.246-20.522 11.153-27.711l-0.013 0.013 322.441-336.732c57.617-60.142 155.099-60.142 212.717 0l322.559 336.732c6.895 7.175 11.141 16.94 11.141 27.697 0 11.344-4.722 21.585-12.308 28.864l-0.014 0.013c-7.169 6.861-16.91 11.084-27.638 11.084-11.374 0-21.639-4.747-28.922-12.368l-0.014-0.015-322.559-336.614c-26.869-28.047-70.335-28.047-97.205 0l-322.441 336.614c-7.3 7.652-17.575 12.41-28.962 12.41-0.282 0-0.563-0.003-0.844-0.009l0.042 0.001z" />
<glyph unicode="&#xe93d;" glyph-name="duplicate" d="M193.819 887.953c-66.822 0-121.772-54.95-121.772-121.772v-423.78c0-66.822 54.95-121.89 121.772-121.89h423.78c66.822 0 121.89 55.068 121.89 121.89v423.78c0 66.822-55.068 121.772-121.89 121.772h-423.78zM193.819 807.992h423.78c23.886 0 41.929-17.925 41.929-41.811v-423.78c0-23.886-18.044-41.929-41.929-41.929h-423.78c-23.886 0-41.811 18.044-41.811 41.929v423.78c0 23.886 17.925 41.811 41.811 41.811zM828.071 675.472c-0.012 0-0.026 0-0.039 0-22.064 0-39.955-17.864-40-39.917v-0.004c0-0.012 0-0.025 0-0.039 0-22.091 17.909-40 40-40 0.014 0 0.028 0 0.041 0h2.006c23.886 0 41.929-17.925 41.929-41.811v-423.779c0-23.886-18.043-41.929-41.929-41.929h-423.779c-23.886 0-41.811 18.043-41.811 41.929v2.008c0 0.012 0 0.025 0 0.039 0 22.091-17.909 40-40 40-0.014 0-0.028 0-0.041 0h0.002c-22.058-0.045-39.921-17.936-39.921-40 0-0.014 0-0.028 0-0.041v0.002-2.008c0-66.821 54.951-121.89 121.772-121.89h423.779c66.821 0 121.89 55.069 121.89 121.89v423.779c0 66.821-55.069 121.772-121.89 121.772h-2.008z" />
<glyph unicode="&#xe93e;" glyph-name="edition" d="M224 888c-83.473 0-152-68.527-152-152v-576c0-83.473 68.527-152 152-152h576c83.473 0 152 68.527 152 152v288c0 22.091-17.909 40-40 40s-40-17.909-40-40v-288c0-40.238-31.762-72-72-72h-576c-40.238 0-72 31.762-72 72v576c0 40.238 31.762 72 72 72h288c22.091 0 40 17.909 40 40s-17.909 40-40 40zM784.375 888c-42.944-0.116-85.848-16.521-118.281-49.156-131.835-132.196-263.779-264.283-395.687-396.406-21.81-21.847-34.334-51.323-34.875-82.188l-2.094-119.969c-0.694-39.596 32.529-72.853 72.125-72.156l119.625 2.125c30.884 0.544 60.396 13.077 82.219 34.938 131.951 132.063 263.861 264.361 395.687 396.437 65.203 65.363 65.19 172.373-0.032 237.719l-0.064 0.062c-32.615 32.514-75.642 48.71-118.623 48.594zM784.594 808.5c22.275 0.060 44.568-8.512 61.844-25.688 34.722-34.788 34.743-89.89 0.032-124.688l-32.812-32.906-123.875 124.094 33.001 33.095c17.194 17.325 39.501 26.033 61.812 26.094zM633.281 692.688l123.844-124.094-306.344-306.875c-7.18-7.192-16.839-11.321-27-11.5l-110.188-1.938 1.938 110.562c0.179 10.187 4.27 19.852 11.469 27.063z" />
<glyph unicode="&#xe93f;" glyph-name="emoji" d="M512 887.938c-242.531 0-439.937-197.406-439.937-439.937s197.406-439.969 439.937-439.969c242.531 0 439.969 197.438 439.969 439.969s-197.438 439.937-439.969 439.937zM512 808c199.296 0 360-160.704 360-360s-160.704-360-360-360c-199.296 0-360 160.704-360 360s160.704 360 360 360zM418.344 640.031c-0.009 0-0.019 0-0.029 0-22.059 0-39.948-17.855-40.002-39.901v-85.63c0-0.018 0-0.039 0-0.060 0-22.093 17.91-40.003 40.003-40.003 0.010 0 0.020 0 0.030 0h-0.002c22.065 0.037 39.938 17.933 39.938 40.002 0 0.021 0 0.042 0 0.063v-0.003 85.625c-0.055 22.029-17.906 39.869-39.934 39.906h-0.004zM605.656 640.031c-0.009 0-0.019 0-0.029 0-22.059 0-39.948-17.855-40.002-39.901v-85.63c0-0.018 0-0.039 0-0.060 0-22.093 17.91-40.003 40.003-40.003 0.010 0 0.020 0 0.030 0h-0.002c0.018 0 0.039 0 0.060 0 22.093 0 40.003 17.91 40.003 40.003 0 0.021 0 0.042 0 0.063v-0.003 85.625c-0.055 22.051-17.943 39.906-40.002 39.906-0.021 0-0.042 0-0.063 0h0.003zM342.719 381.844c-9.215-0.216-17.619-3.516-24.262-8.902l0.075 0.059c-9.14-7.392-14.936-18.606-14.936-31.174 0-9.515 3.322-18.254 8.87-25.121l-0.059 0.076c47.967-59.69 121.726-94.103 199.594-94.156 77.875 0.047 151.654 34.461 199.625 94.156 5.481 6.788 8.799 15.521 8.799 25.030 0 12.576-5.804 23.797-14.879 31.13l-0.076 0.059c-6.788 5.481-15.521 8.799-25.030 8.799-12.576 0-23.797-5.804-31.13-14.879l-0.059-0.076c-32.209-40.081-82.988-64.218-137.25-64.25-54.257 0.037-105.044 24.173-137.25 64.25-6.483 8.064-15.911 13.532-26.628 14.764l-0.185 0.017c-1.284 0.146-2.773 0.23-4.281 0.23-0.33 0-0.659-0.004-0.986-0.012l0.049 0.001z" />
<glyph unicode="&#xe940;" glyph-name="equal" d="M111.969 669.344c-22.051-0.053-39.906-17.942-39.906-40 0-0.022 0-0.044 0-0.066v0.003c0.053-22.018 17.888-39.853 39.901-39.906h800.099c22.018 0.053 39.853 17.888 39.906 39.901v0.005c0 0.019 0 0.041 0 0.063 0 22.058-17.855 39.947-39.901 40h-800.099zM111.969 306.625c-22.029-0.053-39.871-17.906-39.906-39.934v-0.003c0-0.009 0-0.020 0-0.031 0-22.058 17.855-39.947 39.901-40h800.099c22.051 0.053 39.906 17.942 39.906 40 0 0.011 0 0.022 0 0.033v-0.002c-0.036 22.032-17.877 39.884-39.901 39.938h-800.099z" />
<glyph unicode="&#xe941;" glyph-name="expand_diagonal" d="M466.656 887.938c-22.067 0.017-39.979-17.839-40.031-39.906-0.017-22.116 17.916-40.048 40.031-40.031h324.437c7.46 0 14.642-1.045 21.469-2.875l-657.687-657.687c-1.83 6.827-2.875 14.008-2.875 21.469v324.437c0.017 22.116-17.916 40.048-40.031 40.031-22.067-0.052-39.923-17.964-39.906-40.031v-324.437c0-29.777 8.347-57.658 22.625-81.656 13.822-23.23 33.278-42.696 56.5-56.531 24.016-14.309 51.908-22.687 81.719-22.688h324.469c22.067-0.017 39.979 17.839 40.031 39.906 0.035 22.128-17.903 40.080-40.031 40.063h-324.469c-7.488 0-14.682 1.063-21.531 2.906l657.719 657.719c1.843-6.849 2.906-14.043 2.906-21.531v-324.469c-0.017-22.128 17.935-40.066 40.063-40.031 22.067 0.052 39.923 17.964 39.906 40.031v324.469c0 29.811-8.379 57.702-22.688 81.719-13.835 23.222-33.301 42.678-56.531 56.5-23.998 14.279-51.879 22.625-81.656 22.625z" />
<glyph unicode="&#xe942;" glyph-name="experiment" d="M302.008 877.913c-0.012 0-0.025 0-0.039 0-22.092 0-40-17.909-40-40 0-0.014 0-0.027 0-0.041v0.002c0.045-22.058 17.937-39.921 40-39.921 0.014 0 0.027 0 0.041 0h55.982v-304.606l-267.402-323.504c-26.278-31.793-23.399-80.106 0-108.425s60.383-43.341 102.165-43.346h638.504c41.782 0.005 78.766 15.028 102.165 43.346s26.16 76.632-0.118 108.425h0.118l-267.402 323.504v304.606h55.984c0.012 0 0.025 0 0.039 0 22.064 0 39.955 17.864 40 39.917v0.004c0 0.012 0 0.025 0 0.039 0 22.092-17.909 40-40 40-0.014 0-0.027 0-0.041 0h-419.998zM437.953 797.953h148.11v-333.425l285.591-345.591c5.423-6.562 4.334-1.369 0-6.614s-18.776-14.289-40.394-14.291h-638.504c-21.617 0.003-36.178 9.047-40.512 14.291s-5.423 0.053 0 6.614l285.709 345.591v333.425z" />
<glyph unicode="&#xe943;" glyph-name="extend" d="M586.375 887.938c-23.388 0.006-42.35-18.956-42.344-42.344 1.311-22.074 20.27-38.906 42.344-37.594h229.062l-447.875-447.875c-15.636-15.624-15.636-40.969 0-56.594 15.621-15.616 40.942-15.616 56.562 0l447.875 447.875v-229.063c-0.006-23.388 18.956-42.35 42.344-42.344 22.083 1.303 38.928 20.261 37.625 42.344 0.001 121.857 0 243.791 0 365.594-121.845 0.033-243.722 0-365.594 0zM192.063 887.938c-65.8 0-120-54.2-120-120v-639.906c0-65.8 54.2-120 120-120h639.906c65.8 0 120 54.2 120 120v176h-79.969v-176c0-22.565-17.466-40.031-40.031-40.031h-639.906c-22.565 0-40.062 17.466-40.062 40.031v639.906c0 22.565 17.497 40.062 40.062 40.062h176v79.937z" />
<glyph unicode="&#xe944;" glyph-name="filter" d="M163.465 878.858c-76.415 0.010-120.106-95.352-70.157-153.189l263.858-305.669v-319.724c0-45.449 37.71-83.15 83.15-83.15h143.268c45.439 0 83.268 37.7 83.268 83.15v319.724l263.858 305.669c49.949 57.837 6.257 153.199-70.157 153.189zM163.465 798.898h697.087c13.798 0.002 18.565-10.605 9.567-21.024l-283.346-328.11v-349.488c0-2.192-0.962-3.189-3.189-3.189h-143.268c-2.226 0-3.071 0.997-3.071 3.189v349.488l-283.346 328.11c-8.998 10.419-4.231 21.025 9.567 21.024z" />
<glyph unicode="&#xe945;" glyph-name="filters" d="M760.031 887.938c-22.067 0.017-39.979-17.839-40.031-39.906v-240c-0.017-22.116 17.915-40.048 40.031-40.031 22.067 0.052 39.923 17.964 39.906 40.031v79.969h112.125c22.067 0.052 39.923 17.964 39.906 40.031-0.052 22.018-17.888 39.855-39.906 39.906h-112.125v80.094c-0.052 22.018-17.888 39.855-39.906 39.906zM111.969 767.938c-22.018-0.052-39.855-17.888-39.906-39.906-0.017-22.067 17.839-39.979 39.906-40.031h528.062v79.938zM295.969 608.031c-22.116 0.017-40.048-17.915-40.031-40.031v-240c-0.035-22.128 17.903-40.080 40.031-40.063 22.14-0.035 40.097 17.922 40.063 40.063v79.938h576.031c22.079 0.052 39.941 17.983 39.906 40.062 0.017 22.067-17.839 39.979-39.906 40.031h-576.031v79.969c0.017 22.128-17.935 40.066-40.063 40.031zM111.969 488.031c-22.067-0.052-39.923-17.964-39.906-40.031-0.034-22.079 17.827-40.011 39.906-40.062h64v80.094zM568.031 328c-22.128 0.017-40.066-17.934-40.031-40.063v-240c0.052-22.067 17.964-39.924 40.031-39.906 22.018 0.052 39.855 17.888 39.906 39.906v80.094h304.125c22.018 0.052 39.855 17.888 39.906 39.906 0.035 22.079-17.827 40.011-39.906 40.063h-304.125v79.937c0.035 22.079-17.827 40.011-39.906 40.063zM111.969 208c-22.079-0.052-39.941-17.983-39.906-40.063 0.052-22.018 17.888-39.855 39.906-39.906h336.062v79.969z" />
<glyph unicode="&#xe946;" glyph-name="flag" d="M215.938 888c-65.8 0-120-54.2-120-120v-720c0-0.021 0-0.047 0-0.072 0-1.472 0.079-2.925 0.234-4.355l-0.016 0.177c0.26-2.356 0.678-4.477 1.255-6.532l-0.068 0.282c0.642-2.342 1.377-4.336 2.259-6.248l-0.103 0.248c0.399-0.894 0.713-1.53 1.042-2.156l-0.105 0.219c1.083-2.074 2.203-3.843 3.45-5.511l-0.075 0.105c0.489-0.651 0.919-1.19 1.363-1.717l-0.050 0.061c1.823-2.201 3.81-4.148 5.981-5.875l0.082-0.063c2.644-2.097 5.66-3.909 8.897-5.307l0.259-0.1c1.032-0.455 2.359-0.944 3.717-1.362l0.283-0.075c2.43-0.77 5.268-1.334 8.196-1.584l0.148-0.010c0.946-0.080 2.048-0.125 3.161-0.125 0.031 0 0.063 0 0.094 0h-0.005c0.021 0 0.047 0 0.072 0 1.472 0 2.925 0.079 4.355 0.234l-0.177-0.016c0.902 0.096 1.617 0.195 2.327 0.313l-0.233-0.032c3.806 0.625 7.218 1.692 10.404 3.165l-0.248-0.103c0.88 0.4 1.505 0.713 2.121 1.042l-0.215-0.105c1.465 0.757 2.671 1.473 3.834 2.248l-0.146-0.092c1.297 0.865 2.407 1.697 3.471 2.583l-0.064-0.052c2.201 1.823 4.148 3.81 5.875 5.981l0.063 0.082c0.794 1.009 1.597 2.15 2.34 3.333l0.098 0.167c0.649 1.013 1.336 2.231 1.958 3.486l0.105 0.233c1.145 2.271 2.14 4.924 2.846 7.692l0.060 0.277c0.288 1.116 0.562 2.536 0.758 3.98l0.023 0.207c0.081 0.503 0.169 1.232 0.238 1.966l0.012 0.159c0.080 0.947 0.125 2.049 0.125 3.161 0 0.031 0 0.062 0 0.094v-0.005 195.688h679.187c30.885 0 57.235 20.165 67.594 45.156s5.984 57.869-15.844 79.719l-168.781 168.969c-15.967 15.984-15.967 40.673 0 56.656l168.781 168.937c21.828 21.85 26.203 54.727 15.844 79.719s-36.709 45.156-67.594 45.156h-639.187zM215.938 808h622.656l-157.094-157.281c-46.503-46.551-46.503-123.199 0-169.75l157.125-157.281h-662.687v444.312c0 22.565 17.435 40 40 40z" />
<glyph unicode="&#xe947;" glyph-name="glass" d="M511.859 932.61c-93.777 0-178.622-9.79-243.062-26.812-32.22-8.511-59.286-18.47-81.5-32.344s-44.656-35.345-44.656-67.812c0-1.356 0.080-2.682 0.156-4h-0.031l0.094-0.813c0.107-1.525 0.233-3.026 0.437-4.5l74.094-727.219 0.25 0.248c0-29.933 20.597-48.488 39-59.781s40.037-19.032 65.437-25.625c50.801-13.186 116.764-20.563 189.781-20.563s139.012 7.377 189.812 20.563c25.4 6.593 47.034 14.332 65.438 25.625 16.629 10.205 35.013 26.339 38.406 51.437l0.031 0.218c0.163 1.26 0.284 2.539 0.375 3.844l74.47 730.847c0.26 1.795 0.447 3.629 0.562 5.5l0.405 4.125-0.284 0.094c0 32.468-22.442 53.939-44.656 67.812-22.21 13.874-49.244 23.832-81.465 32.344-64.441 17.023-149.317 26.812-243.094 26.812zM511.859 852.642c88.066 0 167.93-9.637 222.656-24.094 27.298-7.211 48.277-15.852 59.406-22.781-11.123-6.932-32.090-15.691-59.406-22.906-54.726-14.456-134.59-24.094-222.656-24.094s-167.899 9.637-222.625 24.094c-27.316 7.216-48.283 15.975-59.406 22.906 11.129 6.929 32.109 15.57 59.406 22.781 54.726 14.456 134.559 24.094 222.625 24.094zM231.828 716.86c11.485-4.144 23.774-7.89 36.969-11.375 64.441-17.023 149.286-26.813 243.062-26.812s178.653 9.79 243.094 26.812c13.191 3.485 25.454 7.232 36.938 11.375l-58.25-571.937c-9.941 3.645-20.553 6.85-31.969 9.812-50.801 13.186-116.795 20.688-189.813 20.688s-138.98-7.502-189.781-20.688c-11.422-2.964-22.054-6.164-32-9.812zM511.859 95.329c67.406 0 128.496-7.238 169.719-17.938 10.058-2.611 13.97-5.238 21.281-8.031-7.307-2.791-11.233-5.329-21.281-7.937-41.223-10.7-102.313-18.063-169.719-18.063s-128.496 7.363-169.719 18.063c-10.049 2.608-13.943 5.147-21.25 7.937 7.311 2.793 11.192 5.421 21.25 8.031 41.223 10.7 102.313 17.938 169.719 17.938z" />
<glyph unicode="&#xe948;" glyph-name="gps" d="M512 960c-0.009 0-0.020 0-0.031 0-22.091 0-40-17.909-40-40 0-0.011 0-0.022 0-0.033v0.002-56.312c-198.289-18.979-356.646-177.336-375.625-375.625h-56.312c-0.009 0-0.020 0-0.031 0-22.091 0-40-17.909-40-40 0-0.011 0-0.022 0-0.033v0.002c0-0.019 0-0.040 0-0.062 0-22.091 17.909-40 40-40 0.011 0 0.022 0 0.033 0h56.311c18.991-198.277 177.345-356.616 375.625-375.594v-56.312c0-0.019 0-0.040 0-0.062 0-22.091 17.909-40 40-40 0.011 0 0.022 0 0.033 0h-0.002c0.019 0 0.040 0 0.062 0 22.091 0 40 17.909 40 40 0 0.022 0 0.044 0 0.066v-0.003 56.312c198.268 18.99 356.604 177.326 375.594 375.594h56.312c0.019 0 0.040 0 0.062 0 22.091 0 40 17.909 40 40 0 0.022 0 0.044 0 0.066v-0.003c0 0.009 0 0.020 0 0.031 0 22.091-17.909 40-40 40-0.022 0-0.044 0-0.066 0h-56.309c-18.978 198.28-177.317 356.634-375.594 375.625v56.312c0 0.009 0 0.020 0 0.031 0 22.091-17.909 40-40 40-0.022 0-0.044 0-0.066 0h0.003zM512 785.563c186.925 0 337.562-150.638 337.562-337.562s-150.638-337.562-337.562-337.562c-186.925 0-337.562 150.638-337.562 337.562s150.638 337.562 337.562 337.562z" />
<glyph unicode="&#xe949;" glyph-name="gps_fix" d="M512 960c-0.009 0-0.020 0-0.031 0-22.091 0-40-17.909-40-40 0-0.011 0-0.022 0-0.033v0.002-56.312c-198.289-18.979-356.646-177.336-375.625-375.625h-56.312c-0.009 0-0.020 0-0.031 0-22.091 0-40-17.909-40-40 0-0.011 0-0.022 0-0.033v0.002c0-0.019 0-0.040 0-0.062 0-22.091 17.909-40 40-40 0.011 0 0.022 0 0.033 0h56.311c18.991-198.277 177.345-356.616 375.625-375.594v-56.312c0-0.019 0-0.040 0-0.062 0-22.091 17.909-40 40-40 0.011 0 0.022 0 0.033 0h-0.002c0.019 0 0.040 0 0.062 0 22.091 0 40 17.909 40 40 0 0.022 0 0.044 0 0.066v-0.003 56.312c198.268 18.99 356.604 177.326 375.594 375.594h56.312c0.019 0 0.040 0 0.062 0 22.091 0 40 17.909 40 40 0 0.022 0 0.044 0 0.066v-0.003c0 0.009 0 0.020 0 0.031 0 22.091-17.909 40-40 40-0.022 0-0.044 0-0.066 0h-56.309c-18.978 198.28-177.317 356.634-375.594 375.625v56.312c0 0.009 0 0.020 0 0.031 0 22.091-17.909 40-40 40-0.022 0-0.044 0-0.066 0h0.003zM512 785.563c186.925 0 337.562-150.638 337.562-337.562s-150.638-337.562-337.562-337.562c-186.925 0-337.562 150.638-337.562 337.562s150.638 337.562 337.562 337.562zM512 625.406c-97.494 0-177.406-79.912-177.406-177.406s79.912-177.406 177.406-177.406c97.494 0 177.406 79.912 177.406 177.406s-79.912 177.406-177.406 177.406zM512 545.438c54.259 0 97.344-43.178 97.344-97.437s-43.085-97.344-97.344-97.344c-54.259 0-97.437 43.085-97.437 97.344s43.178 97.437 97.437 97.437z" />
<glyph unicode="&#xe94a;" glyph-name="gps_slash" d="M512 960c-0.009 0-0.020 0-0.031 0-22.091 0-40-17.909-40-40 0-0.011 0-0.022 0-0.033v0.002-56.312c-85.122-8.147-162.848-42.032-225.375-93.687l-106.281 106.281c-7.236 7.222-17.224 11.688-28.256 11.688-0.031 0-0.062 0-0.092 0h0.005c-11.018-0.011-20.992-4.474-28.219-11.688l0.001 0.001c-7.237-7.238-11.713-17.237-11.713-28.281s4.476-21.043 11.713-28.281l799.937-799.969c7.24-7.246 17.245-11.728 28.297-11.728s21.057 4.482 28.297 11.728v0c7.246 7.24 11.728 17.245 11.728 28.297s-4.482 21.057-11.728 28.297l-106.313 106.313c51.644 62.517 85.536 140.208 93.687 225.312h56.312c0.019 0 0.040 0 0.062 0 22.091 0 40 17.909 40 40 0 0.022 0 0.044 0 0.066v-0.003c0 0.009 0 0.020 0 0.031 0 22.091-17.909 40-40 40-0.022 0-0.044 0-0.066 0h-56.309c-18.978 198.28-177.318 356.634-375.594 375.625v56.312c0 0.009 0 0.020 0 0.031 0 22.091-17.909 40-40 40-0.022 0-0.044 0-0.066 0h0.003zM512 785.563c186.924 0 337.562-150.638 337.562-337.562 0-78.995-26.973-151.424-72.156-208.812l-474.25 474.219c57.392 45.192 129.84 72.156 208.844 72.156zM146.094 648.781c-26.765-48.559-44.217-102.937-49.75-160.75h-56.312c-0.009 0-0.020 0-0.031 0-22.091 0-40-17.909-40-40 0-0.011 0-0.022 0-0.033v0.002c0-0.019 0-0.040 0-0.062 0-22.091 17.909-40 40-40 0.011 0 0.022 0 0.033 0h56.311c18.991-198.276 177.345-356.616 375.625-375.594v-56.312c0-0.019 0-0.040 0-0.062 0-22.091 17.909-40 40-40 0.011 0 0.022 0 0.033 0h-0.002c0.019 0 0.040 0 0.062 0 22.091 0 40 17.909 40 40 0 0.022 0 0.044 0 0.066v-0.003 56.312c57.804 5.536 112.167 22.989 160.719 49.75l-59.281 59.281c-43.014-19.808-90.9-30.938-141.5-30.938-186.924 0-337.562 150.638-337.562 337.562 0 50.6 11.129 98.486 30.938 141.5l-59.281 59.281z" />
<glyph unicode="&#xe94b;" glyph-name="headset" d="M512 887.437c-242.533 0-439.937-197.393-439.937-439.937h0.156c-0.049-0.378-0.105-0.948-0.148-1.522l-0.008-0.134v-137.531c-0.008-0.61-0.094-1.201-0.094-1.812v-150.5c0-80.966 66.498-147.437 147.5-147.437s147.5 66.472 147.5 147.437v150.5c0 80.966-66.498 147.406-147.5 147.406-24.279 0-47.196-6.054-67.469-16.594v8.531c-0.011 0.616-0.033 1.193-0.068 1.767l0.005-0.111h0.062c0 199.312 160.705 360 360 360s360-160.688 360-360h0.157c-0.049-0.377-0.105-0.947-0.149-1.521l-0.008-0.135v-8.531c-20.273 10.54-43.189 16.594-67.469 16.594-81.006 0-147.375-66.437-147.375-147.406v-150.5c0-80.969 66.369-147.437 147.375-147.437s147.5 66.468 147.5 147.437v150.5c0 0.399-0.059 0.787-0.060 1.188v138.156c-0.010 0.614-0.032 1.191-0.066 1.766l0.005-0.109h0.060c0 242.544-197.436 439.937-439.969 439.937zM219.469 373.969c38.056 0 67.406-29.43 67.406-67.469v-150.5c0-38.039-29.35-67.5-67.406-67.5s-67.531 29.461-67.531 67.5v86.781c0.034 0.553 0.056 1.218 0.062 1.887v63.113c0.661 37.409 29.846 66.188 67.469 66.188zM804.531 373.969c37.848 0 67.144-29.108 67.469-66.844v-62.437c0.024-0.273 0.035-0.381 0.046-0.489l-0.015 0.175v-88.375c0-38.042-29.44-67.5-67.5-67.5s-67.406 29.458-67.406 67.5v150.5c0 38.043 29.347 67.469 67.406 67.469z" />
<glyph unicode="&#xe94c;" glyph-name="heart" d="M277.087 867.638c-73.503-0.005-144.059-29.154-196.063-81.024-107.991-107.712-107.991-283.705 0-391.417l323.386-322.677c59.107-58.958 155.971-58.958 215.079 0l323.504 322.677c107.991 107.712 107.991 283.705 0 391.417s-284.136 107.713-392.126 0l-38.858-38.74-38.858 38.74c-52.009 51.875-122.552 81.024-196.063 81.024zM746.929 787.913c50.44 0 100.918-19.285 139.606-57.874 77.377-77.178 77.377-200.972 0-278.15l-323.504-322.677c-28.546-28.473-73.502-28.473-102.047 0l-323.504 322.677c-77.377 77.178-77.377 200.972 0 278.15 37.004 36.908 87.234 57.634 139.606 57.638 52.377 0 102.481-20.726 139.488-57.638l95.433-95.197 95.315 95.197c38.688 38.589 89.166 57.874 139.606 57.874z" />
<glyph unicode="&#xe94d;" glyph-name="hexagon" d="M511.938 959.999c-28.585 0-57.177-7.408-82.75-22.156l-300.5-173.312c-51.146-29.497-82.75-84.163-82.75-143.156v-346.625c0-58.993 31.604-113.785 82.75-143.281l300.5-173.344c51.146-29.497 114.323-29.497 165.469 0l300.656 173.344c51.146 29.497 82.75 84.288 82.75 143.281v346.625c0 58.993-31.604 113.66-82.75 143.156l-300.656 173.312c-25.573 14.748-54.134 22.156-82.719 22.156zM512 880.124c14.732 0 29.443-3.799 42.688-11.438l300.531-173.469c26.49-15.277 42.781-43.289 42.781-73.844v-346.625c0-30.554-16.291-58.723-42.781-74l-300.531-173.312c-26.49-15.277-58.916-15.277-85.406 0l-300.625 173.312c-26.49 15.277-42.656 43.446-42.656 74v346.625c0 30.554 16.166 58.567 42.656 73.844l300.625 173.469c13.245 7.639 27.986 11.438 42.719 11.438z" />
<glyph unicode="&#xe94e;" glyph-name="history" d="M512 887.938c-144.597-0.083-278.5-71.113-360-187.375v115.469c-0.053 22.051-17.942 39.906-40 39.906-0.011 0-0.022 0-0.033 0h0.002c-22.018-0.053-39.853-17.888-39.906-39.901v-224.067c0-30.454 25.515-56 55.969-56h223.937c0.009 0 0.020 0 0.031 0 22.091 0 40 17.909 40 40 0 0.022 0 0.044 0 0.066v-0.003c-0.053 22.051-17.942 39.906-40 39.906-0.011 0-0.022 0-0.033 0h-158.123c62.185 117.964 184.403 191.986 318.156 192.062 199.296 0 360-160.704 360-360s-160.704-360-360-360c-136.156 0.079-260.411 76.849-321.5 198.531-6.734 13.152-20.194 21.997-35.72 21.997-6.564 0-12.759-1.581-18.224-4.383l0.225 0.105c-13.131-6.741-21.959-20.19-21.959-35.701 0-6.535 1.567-12.703 4.346-18.151l-0.105 0.227c74.581-148.556 226.711-242.499 392.937-242.594 242.531 0 439.969 197.438 439.969 439.969s-197.438 439.938-439.969 439.937zM512 761.219c-0.009 0-0.019 0-0.029 0-22.093 0-40.003-17.91-40.003-40.003 0-0.010 0-0.020 0-0.030v0.002-273.187c0.034-0.722 0.078-1.35 0.137-1.973l-0.012 0.16c0.030-0.764 0.075-1.447 0.136-2.124l-0.011 0.156c0.105-1.184 0.238-2.201 0.408-3.204l-0.033 0.236c0.142-0.839 0.262-1.43 0.395-2.018l-0.051 0.268c0.312-1.428 0.625-2.569 0.985-3.689l-0.079 0.283c0.19-0.639 0.307-0.992 0.429-1.343l-0.085 0.281c0.496-1.463 0.961-2.621 1.477-3.75l-0.102 0.25c0.277-0.587 0.454-0.935 0.636-1.281l-0.105 0.218c2.193-4.473 5.009-8.288 8.391-11.516l0.016-0.015 147.156-143.75c7.201-7.024 17.055-11.357 27.922-11.357 11.224 0 21.368 4.622 28.633 12.068l0.008 0.008c7.033 7.203 11.372 17.063 11.372 27.937 0 11.216-4.616 21.354-12.052 28.618l-0.008 0.008-135.469 132.312v256.406c0 0.009 0 0.019 0 0.029 0 22.093-17.91 40.003-40.003 40.003-0.021 0-0.042 0-0.063 0h0.003z" />
<glyph unicode="&#xe94f;" glyph-name="home" d="M512 877.938c-22.605 0-45.203-8.516-62.219-25.531l-332.125-332.125c-29.223-29.223-45.656-68.892-45.656-110.219v-304c0-48.127 39.873-88 88-88h704c48.127 0 88 39.873 88 88v304c0 41.327-16.434 80.996-45.656 110.219l-332.125 332.125c-17.016 17.016-39.614 25.531-62.219 25.531zM506.344 795.844c3.459 3.459 7.853 3.459 11.313 0l332.125-332.125c14.242-14.242 22.219-33.516 22.219-53.656v-304c0-4.892-3.108-8-8-8h-704c-4.892 0-8 3.108-8 8v304c0 20.141 7.977 39.415 22.219 53.656z" />
<glyph unicode="&#xe950;" glyph-name="house" d="M512 880.469c-22.26 0-44.507-7.569-62.469-22.656l-326.5-274.25c-32.328-27.155-51.031-67.28-51.031-109.5v-368c0-48.127 39.873-88 88-88h704c48.127 0 88 39.873 88 88v368c0 42.22-18.703 82.345-51.031 109.5l-326.5 274.25c-17.961 15.088-40.209 22.656-62.469 22.656zM512 800.719c3.868 0 7.741-1.393 11.031-4.156l326.5-274.25c14.272-11.988 22.469-29.611 22.469-48.25v-368c0-4.892-3.108-8-8-8h-187.656v243.562c0 65.8-54.2 120-120 120h-88.656c-65.8 0-120-54.2-120-120v-243.562h-187.688c-4.892 0-8 3.108-8 8v368c0 18.639 8.197 36.262 22.469 48.25l326.5 274.25c3.29 2.763 7.163 4.156 11.031 4.156zM467.688 381.625h88.656c22.565 0 40-17.435 40-40v-243.562h-168.656v243.562c0 22.565 17.435 40 40 40z" />
<glyph unicode="&#xe951;" glyph-name="i18n" d="M266.181 892.313v-90.469h-190.155v-79.969h343.936c-15.417-66.368-44.872-129.653-85.875-184-7.833-10.382-16.088-20.464-24.75-30.187-31.498 33.090-59.262 69.761-82.5 109.094-5.414 9.158-14.253 15.781-24.563 18.406-10.265 2.603-21.143 1.030-30.25-4.375-18.965-11.211-25.295-35.648-14.156-54.656 26.334-44.573 57.745-86.214 93.437-123.719-36.276-29.335-76.694-53.565-119.656-71.406-20.446-8.463-30.136-31.918-21.625-52.344 8.475-20.434 31.927-30.108 52.344-21.594 53.675 22.29 103.671 52.917 148.031 90.281 42.574-35.238 89.37-65.325 139.187-89.344 19.899-9.597 43.811-1.244 53.406 18.656 9.597 19.899 1.244 43.811-18.656 53.406-41.307 19.915-80.338 44.636-116.094 73.406 10.404 11.638 20.337 23.711 29.75 36.187 51.586 68.374 87.198 148.211 103.781 232.187h46.869v79.969h-202.494v90.469zM682.4 529.594c-15.12 0.027-28.964-8.473-35.781-21.969l-225.594-446.094c-9.978-19.702-2.102-43.761 17.594-53.75 19.733-10.037 43.865-2.137 53.844 17.625l35.906 70.969h308.063l35.875-70.969c9.977-19.708 34.040-27.598 53.75-17.625 19.696 9.989 27.571 34.048 17.594 53.75l-225.594 446.094c-6.797 13.456-20.581 21.949-35.656 21.969zM682.4 400.969l113.594-224.625h-227.188z" />
<glyph unicode="&#xe952;" glyph-name="image" d="M223.375 888.063c-85.753 2.277-159.513-79.070-151.406-163.977 0.21-191.342-0.421-382.698 0.318-574.031-0.733-26.983 10.525-50.966 25.026-74.054 31.495-49.489 91.411-73.052 148.496-68.001 189.114 0.405 378.293-0.692 567.401 0.581 80.778 5.178 146.265 82.824 138.791 163.305-0.133 190.8 0.266 381.607-0.2 572.403-2.201 83.94-83.252 152.376-166.143 143.776-187.428 0-374.856 0-562.284 0zM223.375 807.969c194.882-0.239 389.787 0.478 584.655-0.36 42.673-2.459 69.615-45.997 63.876-86.012 0-124.563 0-249.127 0-373.69-59.521 74.771-119.042 149.542-178.562 224.312-79.434-99.736-158.831-199.502-238.25-299.25-43.156 54.208-86.312 108.417-129.469 162.625-57.882-72.748-115.814-145.457-173.719-218.187 0.239 175.518-0.479 351.059 0.36 526.563 2.564 35.88 35.234 65.007 71.109 64zM402.656 740.906c-72.142 3.009-124.93-84.892-87.448-146.806 30.011-60.99 123.087-70.412 164.136-15.865 46.041 50.649 18.155 140.391-47.26 158.151-9.503 2.998-19.469 4.525-29.429 4.521zM693.344 443.719c59.521-74.75 119.042-149.5 178.562-224.25-2.164-39.236 9.982-87.231-25.566-115.438-32.156-25.363-75.239-13.154-112.955-16.062-107.754 0-215.507 0-323.261 0 94.4 118.588 188.811 237.168 283.219 355.75zM325.625 307.188c26.115-32.813 52.229-65.625 78.344-98.438-32.052-40.25-64.104-80.5-96.156-120.75-35.537 1.754-72.072-4.165-106.769 4.381-31.030 8.441-30.93 29.503-9.016 46.968 44.533 55.946 89.065 111.893 133.598 167.839z" />
<glyph unicode="&#xe953;" glyph-name="image_slash" d="M79.969 919.969c-11.029-0.002-21.016-4.467-28.251-11.688l0.001 0.001c-7.246-7.24-11.728-17.245-11.728-28.297s4.482-21.057 11.728-28.297l864-863.969c7.238-7.237 17.237-11.713 28.281-11.713s21.043 4.476 28.281 11.713v0c7.237 7.238 11.713 17.237 11.713 28.281s-4.476 21.043-11.713 28.281l-40.312 40.344c12.69 22.116 20 47.649 20 74.813v577.094c0 83.202-68.204 151.406-151.406 151.406h-577.094c-27.154 0-52.716-7.288-74.844-19.969l-8.312 8.281-32 32.031c-7.236 7.222-17.224 11.688-28.256 11.688-0.031 0-0.062 0-0.092 0h0.005zM223.469 808h577.094c40.266 0 71.438-31.203 71.438-71.469v-385.5l-180.688 184.125-96.781-113.125-137.687 137.687c19.634 17.645 31.929 43.12 31.938 71.467v0.002c0 53.019-42.981 96-96 96v0c-28.341-0.027-53.804-12.331-71.359-31.88l-0.078-0.089-111.5 111.531c4.399 0.808 8.946 1.25 13.625 1.25zM71.938 719.5v-560.062c0-83.202 68.329-151.406 151.531-151.406h559.969l-79.969 79.969h-289.438l133.469 155.969-56.781 56.75-37.188-43.469-128.969 122.469-172.562-176.437v436.156l-80.062 80.062zM695.437 416.813l176.563-180v-77.375c0-4.679-0.411-9.226-1.219-13.625l-219.469 219.438 44.125 51.562zM326.688 267.531l74.781-71.156-92.719-108.375h-85.281c-20.5 0-38.654 8.092-51.531 21.344l154.75 158.187z" />
<glyph unicode="&#xe954;" glyph-name="info" d="M512 888.031c-242.531 0-439.969-197.437-439.969-439.969s197.437-440.094 439.969-440.094c242.531 0 439.969 197.562 439.969 440.094s-197.437 439.969-439.969 439.969zM512 808.063c199.296 0 360-160.704 360-360s-160.704-360-360-360c-199.296 0-360 160.704-360 360s160.704 360 360 360zM512 730.313c-30.928 0-56-25.072-56-56v0c0.018-30.915 25.083-55.969 56-55.969v0c30.917 0 55.982 25.054 56 55.967v0.002c0 30.928-25.072 56-56 56v0zM512 553.563c-26.472-0.036-47.92-21.494-47.938-47.967v-291.971c0.018-26.474 21.466-47.933 47.934-47.969h0.003c26.485 0.018 47.951 21.483 47.969 47.967v291.971c-0.018 26.485-21.483 47.951-47.967 47.969h-0.002z" />
<glyph unicode="&#xe955;" glyph-name="inline_dots" d="M200.375 576c-70.221 0-128-57.778-128-128s57.779-128 128-128c70.221 0 128 57.778 128 128s-57.779 128-128 128zM512 576c-70.221 0-128-57.778-128-128s57.779-128 128-128c70.221 0 128 57.778 128 128s-57.779 128-128 128zM823.625 576c-70.221 0-128-57.778-128-128s57.779-128 128-128c70.221 0 128 57.779 128 128s-57.779 128-128 128zM200.375 496c27.279 0 48-20.72 48-48s-20.721-48-48-48c-27.28 0-48 20.72-48 48s20.721 48 48 48zM512 496c27.279 0 48-20.72 48-48s-20.721-48-48-48c-27.279 0-48 20.72-48 48s20.721 48 48 48zM823.625 496c27.28 0 48-20.72 48-48s-20.72-48-48-48c-27.279 0-48 20.72-48 48s20.721 48 48 48z" />
</font>
</defs>
</svg>
